<svg width="483" height="326" viewBox="0 0 483 326" fill="none" xmlns="http://www.w3.org/2000/svg">
<path d="M491.789 147.438C491.789 147.438 451.205 177.082 472.044 237.843L466.376 238.184C466.376 238.184 449.382 177.383 491.789 147.438Z" fill="#FECE71"/>
<path d="M416.765 152.516C416.765 152.516 458.553 172.963 449.398 231.736L454.622 231.134C454.622 231.134 460.297 172.939 416.765 152.516Z" fill="#FECE71"/>
<path d="M489.141 157.855C485.043 150.884 482.745 141.655 481.809 137.258C483.173 135.975 483.585 134.09 483.918 132.069C484.29 129.867 486.446 124.52 486.446 124.52C487.152 120.345 491.717 118.903 494.848 121.858L504.566 131.048C511.946 138.027 514.871 149.015 511.787 158.307L504.273 175.601C503.797 177.034 502.91 181.685 501.633 184.378C501.364 183.412 501.102 181.344 500.841 180.417C497.789 167.829 494.698 167.322 489.141 157.855Z" fill="#85D2DA"/>
<path d="M498.463 182.865L479.725 172.274C470.07 166.815 463.428 156.232 462.429 144.721L461.708 136.395C461.311 131.856 464.387 130.057 469.222 130.929C471.093 131.277 472.979 132.038 476.53 133.741C478.116 134.486 480.184 136.91 481.809 137.282C482.745 141.655 485.043 150.884 489.141 157.879C494.69 167.386 497.789 167.853 500.873 180.457C501.102 181.392 501.364 183.459 501.665 184.418C500.5 183.444 499.517 183.459 498.463 182.865Z" fill="#9DDBE1"/>
<path d="M426.617 143.311C427.287 143.555 428.014 143.6 428.709 143.439C429.404 143.279 430.038 142.921 430.533 142.408L436.565 136.862C439.315 134.319 441.963 135.428 441.582 139.366C441.448 140.8 441.789 145.751 441.789 145.751C441.86 155.78 438.364 162.228 431.769 168.859C428.742 171.909 423.748 178.73 420.244 181.613C419.412 182.303 415.623 185.78 414.783 185.638C416.21 177.755 418.516 168.661 421.409 161.729C423.837 155.806 425.584 149.627 426.617 143.311Z" fill="#9DDBE1"/>
<path d="M412.381 179.126C410.297 175.64 407.094 167.513 406.587 162.609C405.98 155.09 408.171 147.613 412.738 141.608C414.482 139.318 414.712 134.24 415.718 131.919C417.193 128.505 421.861 130.105 422.686 134.098C423.074 135.959 424.382 140.499 424.382 140.499C424.511 141.114 424.784 141.69 425.18 142.179C425.575 142.668 426.082 143.056 426.657 143.311C425.608 149.618 423.848 155.787 421.41 161.698C418.516 168.63 416.21 177.724 414.783 185.606C413.816 182.913 415.354 184.069 412.381 179.126Z" fill="#85D2DA"/>
<path d="M448.883 145.378C448.883 145.378 452.125 158.941 455.224 184.402C456.587 195.596 456.223 208.017 456.754 220.051H454.899C455.636 208.224 455.448 196.358 454.336 184.56C452.156 163.963 448.875 148.793 448.288 144.951C447.115 137.29 448.883 145.378 448.883 145.378Z" fill="#FECE71"/>
<path d="M450.856 157.523C452.64 157.159 452.798 154.299 452.204 151.938C450.738 146.131 448.597 136.221 446.822 131.159C446.029 128.909 445.641 127.031 444.975 127.071H444.602C443.889 127.451 443.659 129.123 443.81 130.588C444.491 136.371 446.259 147.771 447.504 153.673C448.027 156.089 449.065 157.895 450.856 157.523Z" fill="#F47954"/>
<path d="M481.865 179.871C481.865 179.871 474.731 184.109 469.563 201.593C464.395 219.076 460.844 220.97 460.844 220.97L462.429 221.603C466.313 214.379 470.26 206.029 471.846 199.422C475.444 184.671 481.865 179.871 481.865 179.871Z" fill="#85D2DA"/>
<path d="M466.995 234.909C466.995 234.909 472.749 225.775 474.493 216.031C476.237 206.287 479.891 201.859 481.865 199.871C481.865 199.871 475.444 204.703 471.901 219.446C470.316 226.029 466.353 234.379 462.485 241.627L463.428 242L466.995 234.909Z" fill="#A5A7AA"/>
<path d="M466.995 214.909C466.995 214.909 472.749 205.775 474.493 196.031C476.237 186.287 479.891 181.859 481.865 179.871C481.865 179.871 475.444 184.703 471.901 199.446C470.316 206.029 466.353 214.379 462.485 221.627L463.428 222L466.995 214.909Z" fill="#9DDBE1"/>
<path d="M431.5 174.127C431.5 174.127 439.284 178.88 444.801 198.226C450.317 217.571 454.122 219.686 454.122 219.686L452.354 220.368C448.161 212.351 443.913 203.106 442.248 195.81C438.515 179.53 431.5 174.127 431.5 174.127Z" fill="#9DDBE1"/>
<path d="M447.464 232.929C447.464 232.929 441.234 222.789 439.426 212.031C437.619 201.273 433.656 196.345 431.5 194.127C431.5 194.127 438.515 199.53 442.248 215.825C443.913 223.106 448.161 232.351 452.354 240.384L451.316 240.78L447.464 232.929Z" fill="#A5A7AA"/>
<path d="M447.464 212.929C447.464 212.929 441.234 202.789 439.426 192.031C437.619 181.273 433.656 176.345 431.5 174.127C431.5 174.127 438.515 179.53 442.248 195.825C443.913 203.106 448.161 212.351 452.354 220.384L451.316 220.78L447.464 212.929Z" fill="#85D2DA"/>
<path d="M442.811 160.549C442.811 160.549 450.119 167.156 452.101 188.806C454.082 210.457 457.697 213.46 457.697 213.46L455.684 213.832C452.838 204.484 450.183 193.805 449.873 185.741C449.2 167.687 442.811 160.549 442.811 160.549Z" fill="#9DDBE1"/>
<path d="M451.982 224.959C451.982 224.959 447.4 212.942 447.63 201.146C447.86 189.35 444.65 183.329 442.811 180.549C442.811 180.549 449.152 187.679 449.873 205.741C450.183 213.805 452.838 224.484 455.684 233.832L454.495 234.046L451.982 224.959Z" fill="#A5A7AA"/>
<path d="M451.982 204.959C451.982 204.959 447.4 192.942 447.63 181.146C447.86 169.35 444.65 163.329 442.811 160.549C442.811 160.549 449.152 167.679 449.873 185.741C450.183 193.805 452.838 204.484 455.684 213.832L454.495 214.046L451.982 204.959Z" fill="#85D2DA"/>
<path d="M460.233 145.592C460.233 145.592 452.592 156.152 455.929 184.671C459.266 213.19 455.422 218.078 455.422 218.078L458.133 217.999C459.259 205.142 459.782 190.613 457.982 180.1C453.956 156.556 460.233 145.592 460.233 145.592Z" fill="#85D2DA"/>
<path d="M460.495 225.506C460.495 225.506 463.142 208.719 459.623 193.541C456.104 178.362 458.624 169.688 460.233 165.592C460.233 165.592 453.956 176.556 457.982 200.084C459.782 210.597 459.258 225.126 458.133 237.983L459.718 237.943L460.495 225.506Z" fill="#A5A7AA"/>
<path d="M460.495 205.506C460.495 205.506 463.142 188.719 459.623 173.541C456.104 158.362 458.624 149.688 460.233 145.592C460.233 145.592 453.956 156.556 457.982 180.084C459.782 190.597 459.258 205.126 458.133 217.983L459.718 217.943L460.495 205.506Z" fill="#9DDBE1"/>
<path d="M440.283 251.256H477.68L478.488 242.209L481.112 240.886L483.49 214.189L485.503 213.848L486.256 208.873H431.738L432.491 213.832L434.536 214.284L437.144 240.664L439.387 242.224L440.283 251.256Z" fill="#435D88"/>
<path d="M129.748 82.5589H129.82C130.337 82.3485 130.866 82.1686 131.405 82.0202H131.453C132.124 81.8328 132.807 81.6899 133.498 81.5924L133.767 81.537H133.846C134.532 81.4427 135.223 81.3924 135.915 81.3865H377.356C379.413 81.3875 381.448 81.8175 383.329 82.649C385.211 83.4805 386.898 84.6951 388.283 86.2153C389.669 87.7355 390.721 89.5278 391.374 91.4776C392.027 93.4275 392.266 95.492 392.075 97.5393L387.169 150.014V208.455H114.498V149.975L119.579 96.2797C119.734 94.6456 120.132 93.0437 120.76 91.5266H105.073C105.073 91.5266 103.179 91.5266 102.323 91.5266C101.487 91.5815 100.656 91.69 99.8338 91.8514L129.748 82.5589Z" fill="#F47954"/>
<path d="M42.3113 152.114H130.89V298.535C130.886 302.871 129.159 307.028 126.09 310.093C123.021 313.157 118.86 314.878 114.522 314.878H43.4051C39.064 314.878 34.9007 313.155 31.8311 310.087C28.7615 307.019 27.037 302.858 27.037 298.519V167.371C27.0391 163.324 28.6492 159.443 31.5135 156.582C34.3778 153.721 38.2617 152.114 42.3113 152.114Z" fill="#F47954"/>
<path d="M42.3113 152.114H130.89V298.535C130.886 302.871 129.159 307.028 126.09 310.093C123.021 313.157 118.86 314.878 114.522 314.878H43.4051C39.064 314.878 34.9007 313.155 31.8311 310.087C28.7615 307.019 27.037 302.858 27.037 298.519V167.371C27.0391 163.324 28.6492 159.443 31.5135 156.582C34.3778 153.721 38.2617 152.114 42.3113 152.114Z" fill="#F69476"/>
<path d="M276.428 314.704L69.0394 314.656C65.9783 314.45 63.1101 313.089 61.0147 310.849C58.9193 308.609 57.7532 305.658 57.7521 302.591V201.982C57.7511 200.321 58.0926 198.678 58.7552 197.155C59.4179 195.632 60.3874 194.262 61.6034 193.13C62.8194 191.997 64.2558 191.128 65.8229 190.575C67.39 190.023 69.0543 189.799 70.7119 189.917L276.396 189.838L276.428 314.704Z" fill="#339BD1"/>
<path d="M268.398 152.114H356.985V298.535C356.981 302.873 355.253 307.031 352.182 310.095C349.111 313.16 344.948 314.88 340.609 314.878H269.5C265.159 314.878 260.996 313.155 257.926 310.087C254.856 307.019 253.132 302.858 253.132 298.519V167.371C253.134 163.326 254.743 159.446 257.606 156.585C260.468 153.724 264.35 152.116 268.398 152.114Z" fill="#339BD1"/>
<path d="M144.745 314.878H73.605C69.2639 314.878 65.1006 313.155 62.031 310.087C58.9614 307.019 57.2368 302.858 57.2368 298.519V167.371C57.2368 165.367 57.632 163.382 58.3997 161.531C59.1674 159.679 60.2926 157.997 61.7111 156.58C63.1295 155.163 64.8134 154.039 66.6666 153.273C68.5197 152.507 70.5057 152.113 72.5112 152.114H219.754V298.535C219.754 307.574 153.781 314.878 144.745 314.878Z" fill="#F47954"/>
<path d="M359.569 208.415H84.7972V149.975L89.5531 104.764C89.9369 101.132 91.6524 97.771 94.3689 95.3282C97.0853 92.8854 100.61 91.534 104.265 91.5347H349.296C351.368 91.5343 353.416 91.9693 355.308 92.8114C357.201 93.6536 358.895 94.884 360.281 96.4229C361.667 97.9618 362.713 99.7747 363.352 101.744C363.992 103.713 364.21 105.795 363.992 107.854L359.569 149.975V208.415Z" fill="#F47954"/>
<path opacity="0.25" d="M359.569 208.415H84.7972V149.975L89.5531 104.764C89.9369 101.132 91.6524 97.771 94.3689 95.3282C97.0853 92.8854 100.61 91.534 104.265 91.5347H349.296C351.368 91.5343 353.416 91.9693 355.308 92.8114C357.201 93.6536 358.895 94.884 360.281 96.4229C361.667 97.9618 362.713 99.7747 363.352 101.744C363.992 103.713 364.21 105.795 363.992 107.854L359.569 149.975V208.415Z" fill="#B75B3F"/>
<path d="M276.428 314.704L69.0394 314.656C65.9783 314.45 63.1101 313.089 61.0147 310.849C58.9193 308.609 57.7532 305.658 57.7521 302.591V201.982C57.7511 200.321 58.0926 198.678 58.7552 197.155C59.4179 195.632 60.3874 194.262 61.6034 193.13C62.8194 191.997 64.2558 191.128 65.8229 190.575C67.39 190.023 69.0543 189.799 70.7119 189.917L276.396 191.09L276.428 314.704Z" fill="#F47954"/>
<path d="M57.9899 199.764L58.2515 198.647C59.2344 190.004 68.5559 189.933 68.5559 189.933C104.693 177.725 160.868 189.378 160.868 189.378C161.347 189.834 161.955 190.13 162.608 190.228C163.262 190.326 163.93 190.22 164.522 189.925C192.169 176.925 244.183 188.848 265.347 192.706V228.014H57.871V200.548L57.9899 199.764Z" fill="#B75B3F"/>
<path opacity="0.4" d="M57.9899 199.764L58.2515 198.647C59.2344 190.004 68.5559 189.933 68.5559 189.933C104.693 177.725 160.868 189.378 160.868 189.378C161.347 189.834 161.955 190.13 162.608 190.228C163.262 190.326 163.93 190.22 164.522 189.925C192.169 176.925 244.183 188.848 265.347 192.706V228.014H57.871V200.548L57.9899 199.764Z" fill="#F47954"/>
<path d="M268.398 152.114H356.985V298.535C356.981 302.873 355.253 307.031 352.182 310.095C349.111 313.16 344.948 314.88 340.609 314.878H269.5C265.159 314.878 260.996 313.155 257.926 310.087C254.856 307.019 253.132 302.858 253.132 298.519V167.371C253.134 163.326 254.743 159.446 257.606 156.585C260.468 153.724 264.35 152.116 268.398 152.114Z" fill="#F69476"/>
<path d="M298.622 152.114H375.937C378.924 152.114 381.789 153.3 383.902 155.411C386.014 157.522 387.201 160.385 387.201 163.371V298.535C387.196 302.868 385.472 307.023 382.406 310.087C379.341 313.151 375.184 314.874 370.848 314.878H299.716C295.375 314.878 291.212 313.155 288.142 310.087C285.072 307.019 283.348 302.858 283.348 298.519V167.371C283.35 163.324 284.96 159.443 287.824 156.582C290.689 153.721 294.572 152.114 298.622 152.114Z" fill="#F47954"/>
<path d="M87.2228 325.153C134.953 325.153 173.645 322.674 173.645 319.616C173.645 316.557 134.953 314.078 87.2228 314.078C39.493 314.078 0.800293 316.557 0.800293 319.616C0.800293 322.674 39.493 325.153 87.2228 325.153Z" fill="#31415E"/>
<path d="M212.992 37.166C213.238 38.18 213.357 38.8376 213.357 38.8376L212.992 37.166Z" fill="#F8BFB1"/>
<path opacity="0.4" d="M251.158 84.7297C251.761 88.1283 252.292 91.4079 252.672 93.6895C254.551 104.883 257.539 127.302 255.375 138.845C255.164 140.128 254.659 141.345 253.9 142.402C253.142 143.459 252.149 144.326 251 144.937C250.873 145.016 250.817 145.158 250.691 145.23L250.31 145.349C250.082 145.436 249.849 145.51 249.613 145.57L235.916 149.967L235.258 152.344C234.14 156.899 236.336 151.702 233.72 161.383C233.451 162.381 230.082 164.829 229.844 165.692C228.861 169.328 228.211 171.689 228.211 171.689C228.211 171.689 227.569 171.317 226.626 170.818L226.087 172.822C222.916 183.604 219.199 188.286 208.839 190.25H209.013C248.804 190.25 230.867 158.523 243.097 155.584C254.86 152.748 258.11 139.977 257.769 133.505C256.897 117.558 251.158 84.7297 251.158 84.7297Z" fill="#7A3D2A"/>
<path opacity="0.1" d="M182.055 192.325L144.698 198.219C138.332 199.216 132.509 202.385 128.218 207.189C123.927 211.993 121.435 218.134 121.164 224.568L119.008 275.165L115.837 191.121L182.055 192.325Z" fill="#132233"/>
<path opacity="0.1" d="M118.833 279.705L120.926 280.172L119.618 256.256H119.341L119 277.344L116.091 276.996L115.924 304.501L116.598 310.236L115.449 314.379L122.21 314.554V310.696C122.21 310.696 121.204 306.489 120.443 305.15C119.682 303.811 118.833 279.705 118.833 279.705Z" fill="#132233"/>
<path opacity="0.4" d="M131.801 189.854L83.8144 193.086L78.0835 260.462L86.6758 213.358C87.4681 209.016 89.5386 205.008 92.6225 201.849C95.7064 198.689 99.6634 196.521 103.987 195.621L131.801 189.854Z" fill="#132233"/>
<path opacity="0.1" d="M74.5404 273.755L73.3831 273.518L69.2534 301.363V307.487L68.0169 311.963L70.054 311.908L71.132 308.612L70.7991 301.625L74.0252 275.665L76.4507 274.096L76.4665 273.946L74.5404 273.755Z" fill="#132233"/>
<g opacity="0.4">
<path opacity="0.4" d="M71.4411 311.923H69.4832C69.1077 312.315 68.8615 312.813 68.7778 313.349C68.6985 313.809 68.6272 314.213 68.5479 314.601H69.6814C69.8875 313.666 70.2442 312.438 70.7277 312.224L71.4411 311.923Z" fill="#649EA3"/>
</g>
<path d="M219.357 36.7462L219.127 35.5896L219.357 36.7304V36.7462Z" fill="#FECE71"/>
<path d="M218.525 30.4087L218.398 30.4562L218.525 30.4087L219.088 23.9919C219.124 23.8302 219.148 23.666 219.159 23.5007C219.148 23.666 219.124 23.8302 219.088 23.9919L218.525 30.4087Z" fill="#85D2DA"/>
<path d="M220.245 14.3349L219.746 18.6762L220.245 14.3349C220.24 13.9291 220.165 13.5272 220.023 13.1467L219.357 11.7207L220.023 13.1467C220.165 13.5272 220.24 13.9291 220.245 14.3349Z" fill="#85D2DA"/>
<path d="M219.159 23.5007C219.194 23.3416 219.218 23.1801 219.23 23.0175L219.714 18.6763L219.23 23.0175C219.218 23.1801 219.194 23.3416 219.159 23.5007Z" fill="white"/>
<path d="M215.109 3.11757C214.803 2.78704 214.437 2.51812 214.031 2.32538L202.458 -1.69897L214.031 2.34914C214.435 2.53481 214.801 2.79557 215.109 3.11757Z" fill="white"/>
<path d="M75.1904 261.326L69.2217 301.593L69.2534 307.487L67.9297 312.264L24.7938 312.478L25.0871 309.064L49.8811 300.183L56.1589 296.856L59.7417 257.824L75.1904 261.326Z" fill="#FECE71"/>
<path d="M73.9459 313.627L74.0014 313.373C74.0353 313.194 74.0291 313.01 73.9834 312.833C73.9376 312.657 73.8534 312.493 73.7367 312.353C73.6201 312.213 73.4739 312.1 73.3086 312.023C73.1433 311.946 72.963 311.907 72.7807 311.907L23.0341 312.502C22.7411 312.505 22.46 312.618 22.247 312.82C22.034 313.021 21.9046 313.295 21.8847 313.587C21.8739 313.747 21.8961 313.908 21.9502 314.06C22.0043 314.212 22.089 314.35 22.199 314.468C22.309 314.585 22.4421 314.679 22.5898 314.742C22.7376 314.806 22.8969 314.839 23.0579 314.839L72.7569 314.609C73.0383 314.608 73.3109 314.51 73.5278 314.331C73.7447 314.152 73.8925 313.903 73.9459 313.627Z" fill="#85D2DA"/>
<path d="M22.8121 312.763C24.6035 313.072 31.1587 312.684 36.1841 312.446L53.7809 312.137C53.7809 312.137 51.6883 300.207 47.7013 300.405L33.18 305.483C32.9501 305.562 26.7437 308.081 24.0566 309.317C23.2481 309.674 22.7408 312.747 22.8121 312.763Z" fill="#85D2DA"/>
<path d="M68.9681 197.728L172.805 190.092C186.145 188.507 192.439 182.463 195.966 170.437L200.207 152.114L163.674 149.975L154.313 157.271L77.3622 170.358C68.4845 172.521 65.8133 174.05 66.3127 183.033L68.9681 197.728Z" fill="#324666"/>
<path d="M56.3491 270.285L76.4507 274.096L88.7843 171.293C88.7843 171.293 78.5353 170.5 74.6514 171.182C65.5042 172.766 65.0524 179.302 64.8304 186.035L56.3491 270.285Z" fill="#324666"/>
<path d="M56.3491 270.285L76.4507 274.096L88.7843 171.293C88.7843 171.293 78.5353 170.5 74.6514 171.182C65.5042 172.766 65.0524 179.302 64.8304 186.035L56.3491 270.285Z" fill="#324666"/>
<path d="M116.17 265.271L115.917 304.524L116.598 310.26L115.275 315.037L71.4886 315.401L71.7819 311.995L96.5839 303.114L102.069 300.199L100.476 262.768L116.17 265.271Z" fill="#FECE71"/>
<path d="M120.641 316.55L120.696 316.304C120.732 316.125 120.727 315.94 120.682 315.763C120.636 315.586 120.552 315.421 120.435 315.281C120.318 315.14 120.171 315.028 120.005 314.951C119.839 314.875 119.658 314.836 119.476 314.839L69.729 315.433C69.4373 315.436 69.1573 315.548 68.9445 315.748C68.7317 315.947 68.6015 316.219 68.5797 316.51C68.5676 316.671 68.5891 316.832 68.6427 316.984C68.6963 317.137 68.781 317.276 68.8913 317.393C69.0015 317.511 69.135 317.605 69.2833 317.668C69.4317 317.731 69.5915 317.763 69.7528 317.762L119.452 317.54C119.734 317.536 120.006 317.436 120.222 317.255C120.438 317.075 120.586 316.826 120.641 316.55Z" fill="#9DDBE1"/>
<path d="M69.5071 315.67C71.2985 315.987 77.8537 315.599 82.8791 315.354L100.476 315.045C100.476 315.045 98.3832 303.122 94.4042 303.32L79.8511 308.398C79.6213 308.477 73.4148 310.996 70.7278 312.224C69.943 312.605 69.4357 315.67 69.5071 315.67Z" fill="#9DDBE1"/>
<path d="M102.576 195.684C102.576 195.684 162.065 194.235 180.93 192.429C186.478 191.89 205.058 190.939 205.058 190.939C218.406 189.355 222.56 184.911 226.087 172.893L230.328 157.231L203.179 149.095L173.598 149.983L171.458 158.863L140.338 165.114L108.371 170.96C98.0662 173.257 98.8588 175.056 99.3503 184.055L102.576 195.684Z" fill="#435D88"/>
<path d="M99.0966 274.967L119 277.344L120.72 171.491C120.72 171.491 108.616 170.817 104.938 171.808C97.6699 173.748 97.012 179.143 97.4479 185.861L99.0966 274.967Z" fill="#435D88"/>
<path d="M101.308 152.375L100.476 147.899L102.053 142.259L108.331 138.781L118.818 140.753L142.248 134.582L146.188 145.435L126.625 150.323L121.235 152.724L118.255 152.906L113.428 150.553L111.232 150.513L108.315 154.95L106.246 154.791L105.557 153.151L101.308 152.375Z" fill="#FECE71"/>
<path d="M195.189 73.1081C195.29 69.3371 194.099 65.6449 191.813 62.6432C191.409 62.0792 190.893 61.605 190.297 61.2505C189.701 60.8959 189.037 60.6688 188.349 60.5835C185.276 60.2087 182.166 60.8604 179.503 62.4372C177.996 63.3245 176.868 64.7341 176.332 66.3982C171.893 80.5072 166.583 110.492 163.325 125.757C162.887 127.84 163.186 130.01 164.17 131.897C165.155 133.783 166.764 135.27 168.723 136.103L171.188 136.975C172.976 137.415 174.859 137.254 176.546 136.518C178.234 135.782 179.632 134.512 180.525 132.903C186.637 122.818 189.459 105.667 191.622 94.5291C192.645 89.1897 194.88 78.5346 195.189 73.1081Z" fill="#4195C9"/>
<path d="M167.447 121.638L127.022 137.902L132.15 150.656L176.483 136.579C177.563 136.019 178.494 135.211 179.199 134.22C179.905 133.23 180.365 132.086 180.541 130.883L180.763 129.425C180.92 128.358 180.852 127.269 180.562 126.229C180.273 125.19 179.769 124.222 179.083 123.389C177.895 121.956 176.228 121.002 174.39 120.703L172.948 120.466C171.032 120.146 169.065 120.565 167.447 121.638Z" fill="#4195C9"/>
<path opacity="0.6" d="M175.857 72.0227C175.857 72.0227 169.515 109.391 167.764 115.807C166.012 122.224 160.178 136.032 158.934 138.543C157.689 141.055 158.006 142.457 158.006 142.457L159.433 142.259H161.423L168.881 125.749L171.259 114.564L174.121 93.9665L175.857 72.0227Z" fill="#435D88"/>
<path d="M203.877 52.8834L222.433 52.7012C222.433 52.7012 238.286 56.9869 242.891 61.2727C249.771 67.7212 250.683 82.2025 248.44 104.051C245.879 128.95 240.03 134.337 235.44 151.583C233.783 157.826 236.478 151.179 233.696 161.462C233.427 162.46 230.058 164.908 229.82 165.771C228.837 169.407 228.187 171.768 228.187 171.768C228.187 171.768 212.089 161.969 194.952 161.47C180.541 161.05 156.611 156.099 156.611 156.099C156.611 156.099 153.583 157.952 154.844 154.15C155.264 152.882 156.817 147.503 157.547 146.038C162.302 136.452 165.069 131.208 167.526 122.787C173.97 100.645 175.991 69.971 175.991 69.971C176.19 61.4629 184.861 55.1649 193.771 53.937L203.877 52.8834Z" fill="#4195C9"/>
<path d="M197.393 64.1324C193.43 58.8406 189.031 57.0027 184.885 57.0027C179.852 59.8863 176.11 64.4493 175.983 69.9868C175.983 69.9868 173.962 100.661 167.518 122.802C165.061 131.223 162.294 136.468 157.539 146.053C156.809 147.519 155.256 152.89 154.828 154.165C153.575 157.968 156.603 156.114 156.603 156.114C156.603 156.114 180.533 161.065 194.944 161.485C199.754 161.676 204.524 162.45 209.148 163.791C211.059 160.958 212.494 157.833 213.396 154.538C216.86 140.445 209.513 80.3091 197.393 64.1324Z" fill="#4195C9"/>
<path opacity="0.1" d="M197.393 64.1324C193.43 58.8406 189.031 57.0027 184.885 57.0027C179.852 59.8863 176.11 64.4493 175.983 69.9868C175.983 69.9868 173.962 100.661 167.518 122.802C165.061 131.223 162.294 136.468 157.539 146.053C156.809 147.519 155.256 152.89 154.828 154.165C153.575 157.968 156.603 156.114 156.603 156.114C156.603 156.114 180.533 161.065 194.944 161.485C199.754 161.676 204.524 162.45 209.148 163.791C211.059 160.958 212.494 157.833 213.397 154.538C215.259 147.044 207.055 127.057 207.317 106.792C207.563 88.9678 205.145 79.6199 201.158 70.7394C200.145 68.4077 198.883 66.1925 197.393 64.1324Z" fill="#E8ECF1"/>
<path d="M212.572 61.9857C215.807 61.751 218.832 60.2987 221.038 57.9217C221.902 57.3355 223.416 55.5451 223.035 53.8498L218.406 32.3655L200.888 34.7896C200.888 34.7896 202.735 50.784 203.568 57.7633C203.813 59.8626 205.771 62.3263 212.572 61.9857Z" fill="#FECE71"/>
<path d="M194.428 51.2197L220.824 44.0424L217.93 29.6165L218.049 23.5325L212.231 2.68188L178.797 9.20165L182.444 24.998L184.267 28.6342L186.161 40.1369L188.706 39.3922L192.296 50.071C192.433 50.5013 192.732 50.8615 193.13 51.0757C193.528 51.29 193.993 51.3416 194.428 51.2197Z" fill="#FECE71"/>
<path opacity="0.4" d="M193.033 40.1131C193.241 40.0563 193.453 40.0192 193.667 40.0022L196.307 39.8042C197.117 39.723 197.915 39.5475 198.685 39.2813L196.862 33.6488L198.051 26.0358L192.653 24.1821L190.838 21.9085L188.65 7.27661L178.805 9.19372L182.452 24.998L184.275 28.6342L186.161 40.1369L188.706 39.3922L190.79 45.5872L189.332 41.1351L193.033 40.1131Z" fill="url(#paint0_linear)"/>
<path d="M212.992 37.166C212.463 34.9497 211.706 32.794 210.733 30.7334C208.87 26.9229 209.568 20.6646 209.568 20.6646L207.983 23.7303C207.523 24.6032 207.19 25.5367 206.992 26.503L206.255 30.1471C206.111 30.845 205.899 31.5269 205.621 32.1831L204.979 33.6486C204.234 35.3625 203.04 36.8433 201.523 37.9344C200.665 38.5374 199.718 39.0025 198.717 39.3128L203.916 48.3122L209.417 45.4524C209.65 45.3308 209.847 45.1505 209.988 44.9295L212.707 40.7784L213.357 38.8217L212.992 37.166Z" fill="#435D88"/>
<path d="M192.265 50.071L190.758 45.5872L192.209 49.9997C192.333 50.471 192.634 50.8765 193.049 51.1325C193.491 51.3024 193.972 51.3436 194.436 51.2514C196.473 50.7206 202.545 49.0253 202.545 49.0253H202.601L194.428 51.2434C193.986 51.3738 193.51 51.3237 193.104 51.1039C192.699 50.8842 192.397 50.5128 192.265 50.071Z" fill="#435D88"/>
<path d="M198.717 39.2812C197.947 39.5474 197.149 39.7229 196.339 39.8041L193.699 40.0021C193.485 40.0191 193.273 40.0563 193.065 40.1131L189.332 41.135L190.79 45.5871L192.296 50.0709C192.433 50.5083 192.737 50.8741 193.142 51.0891C193.547 51.3041 194.021 51.351 194.46 51.2196L202.632 49.0015L203.956 48.3123L198.756 39.3129L198.717 39.2812Z" fill="#697DA0"/>
<path d="M217.534 30.7335C217.534 30.7335 216.393 30.8919 215.553 29.1491C214.538 27.1052 214.419 23.8176 214.379 21.1479C214.316 17.3374 213.69 15.4045 211.692 16.1254C210.702 16.4819 209.703 20.831 208.878 21.4806C208.205 22.0114 206.271 16.5532 206.231 15.9907C206.168 14.9371 204.701 13.4081 204.384 12.41C204.067 11.4118 202.165 9.73236 201.063 10.0334C199.39 10.4691 181.683 16.6245 179.963 16.7671C178.908 16.8463 178.417 15.5708 178.013 14.5964C177.402 13.1388 177.22 8.32225 177.22 8.32225C177.141 7.63304 178.346 9.22536 178.671 8.61537L180.938 4.43257C181.166 4.01309 181.48 3.64658 181.859 3.35712C182.239 3.06767 182.676 2.86182 183.141 2.75312L188.127 -0.479039L188.349 -0.526571L200.468 -1.9446C201.141 -2.06642 201.835 -1.98076 202.458 -1.69902L214.031 2.35702C214.848 2.72344 215.486 3.39857 215.806 4.23452L219.991 13.1467C220.133 13.5272 220.208 13.9292 220.213 14.335L219.223 23.0492C219.229 23.379 219.183 23.7078 219.088 24.0236L218.525 30.4404L217.534 30.7335Z" fill="#85D2DA"/>
<path opacity="0.4" d="M183.141 2.753C182.678 2.86832 182.244 3.08041 181.868 3.37534C181.492 3.67026 181.183 4.04133 180.961 4.46414L178.694 8.64694C178.369 9.25693 177.165 7.66461 177.244 8.35382C177.244 8.35382 177.402 13.1704 178.036 14.628C178.441 15.6024 178.932 16.8778 179.986 16.7986C180.779 16.7273 185.115 15.341 189.641 13.8358L187.532 -0.114746L183.141 2.753Z" fill="#B6E4E9"/>
<path opacity="0.1" d="M202.545 49.0253L209.885 45.1039L213.175 39.3843L211.209 45.904L203.013 52.9625L202.545 49.0253Z" fill="#414042"/>
<path opacity="0.5" d="M91.7885 110.563L133.22 88.1994L184.552 60.4805L203.98 162.183L162.287 161.549H94.0475L91.7885 110.563Z" fill="url(#paint1_linear)"/>
<path opacity="0.4" d="M194.428 164.623C194.428 164.623 170.966 167.871 160.273 168.362C149.58 168.853 124.327 166.864 120.72 166.967C117.114 167.07 109.179 169.106 104.074 169.233C100.968 169.293 97.8951 168.588 95.1255 167.181L97.8522 164.623L163.119 163.83L194.428 164.623Z" fill="#132233"/>
<path d="M151.324 112.932L162.516 162.626L82.0784 164.67L70.4344 115.784C70.2942 115.195 70.2882 114.582 70.4169 113.991C70.5455 113.399 70.8055 112.844 71.1776 112.366C71.5497 111.889 72.0244 111.501 72.5667 111.231C73.1089 110.962 73.7049 110.817 74.3105 110.809L147.321 109.779C148.249 109.767 149.153 110.073 149.881 110.647C150.61 111.221 151.119 112.028 151.324 112.932Z" fill="#F1F4F7"/>
<path d="M203.98 162.183L162.524 162.626L162.287 161.549L203.354 161.913L203.98 162.183Z" fill="#CED7E2"/>
<path d="M203.98 162.182L162.524 162.626L82.0785 164.67L83.4735 167.474L162.596 165.462L204.027 164.369L203.98 162.182Z" fill="#ADBDCF"/>
<path d="M162.524 162.626L162.596 165.462L204.027 164.369L203.98 162.182L162.524 162.626Z" fill="#F9FBFC"/>
<path d="M124.477 137.173C124.521 138.871 124.059 140.543 123.151 141.979C122.243 143.415 120.93 144.55 119.377 145.239C117.824 145.929 116.101 146.143 114.426 145.854C112.751 145.565 111.2 144.786 109.968 143.616C108.736 142.446 107.879 140.937 107.506 139.28C107.132 137.623 107.258 135.893 107.869 134.307C108.479 132.722 109.546 131.354 110.935 130.375C112.324 129.396 113.972 128.85 115.671 128.807C117.948 128.752 120.154 129.602 121.805 131.17C123.456 132.738 124.417 134.897 124.477 137.173Z" fill="#CED7E2"/>
<path opacity="0.6" d="M194.428 149.912L203.148 146.022V144.881L227.101 134.123C228.773 133.371 230.172 132.121 231.105 130.544C232.039 128.967 232.462 127.14 232.317 125.314L228.441 76.1106L239.269 132.768L205.518 147.868L194.428 149.912Z" fill="#435D88"/>
<path opacity="0.2" d="M200.96 159.988L208.974 158.388L209.909 159.188L235.123 152.811L236.13 149.087L208.696 156.098L200.96 158.388V159.988Z" fill="#B55452"/>
<path d="M185.63 159.98L187.437 160.471L194.325 162.087L197.298 161.786L202.585 159.188L221.933 152.961L217.59 142.259L194.428 149.911L183.894 147.495L175.968 150.949L174.382 155.972L172.86 162.183L175.001 162.278L175.223 161.969L181.001 162.491L185.63 159.98Z" fill="#FECE71"/>
<path d="M248.463 72.3714C247.233 68.8098 244.83 65.771 241.647 63.7524C241.071 63.3673 240.421 63.1058 239.739 62.9845C239.057 62.8631 238.357 62.8845 237.683 63.0473C234.671 63.7727 231.984 65.4748 230.042 67.8876C228.932 69.2551 228.367 70.9849 228.457 72.7438C229.25 87.4707 234.441 122.771 236.764 138.211C237.078 140.313 238.113 142.24 239.692 143.664C241.271 145.087 243.295 145.918 245.42 146.014L248.035 145.966C249.87 145.748 251.581 144.931 252.904 143.642C254.227 142.353 255.087 140.664 255.351 138.837C257.515 127.263 254.559 104.844 252.649 93.6815C251.737 88.3104 250.072 77.5682 248.463 72.3714Z" fill="#4195C9"/>
<path d="M241.171 130.613L204.035 146.022L209.75 158.38L250.659 145.261C251.719 144.665 252.623 143.827 253.297 142.815C253.97 141.803 254.395 140.646 254.535 139.438L254.709 137.965C254.834 136.894 254.732 135.809 254.409 134.78C254.087 133.751 253.552 132.801 252.839 131.992C251.613 130.599 249.923 129.699 248.083 129.457L246.632 129.259C244.706 129.005 242.755 129.489 241.171 130.613Z" fill="#4195C9"/>
<defs>
<linearGradient id="paint0_linear" x1="182.126" y1="42.4422" x2="194.186" y2="9.3002" gradientUnits="userSpaceOnUse">
<stop stop-color="white"/>
<stop offset="0.52" stop-color="#F0F3F6"/>
<stop offset="1" stop-color="#E8ECF1"/>
</linearGradient>
<linearGradient id="paint1_linear" x1="103.892" y1="173.265" x2="206.745" y2="86.9137" gradientUnits="userSpaceOnUse">
<stop stop-color="white"/>
<stop offset="0.46" stop-color="#F0F3F6"/>
<stop offset="0.89" stop-color="#E8ECF1"/>
</linearGradient>
</defs>
</svg>
