<svg width="777" height="429" viewBox="0 0 777 429" fill="none" xmlns="http://www.w3.org/2000/svg">
<g clip-path="url(#clip0)">
<path d="M424.965 67.4009C427.259 64.4769 428.682 60.9633 429.07 57.2647C429.458 53.5661 428.796 49.8329 427.159 46.4948C425.522 43.1568 422.978 40.3497 419.818 38.3968C416.659 36.4438 413.013 35.4245 409.301 35.456C405.589 35.4876 401.961 36.5689 398.835 38.5753C395.709 40.5817 393.213 43.4316 391.633 46.797C390.053 50.1624 389.454 53.9064 389.905 57.5979C390.356 61.2893 391.838 64.7782 394.181 67.6627L394.247 74.6317L401.019 73.0447C405.058 74.9649 409.628 75.4522 413.979 74.4266C418.331 73.4009 422.204 70.9234 424.965 67.4009Z" fill="#E3F1FB"/>
<path d="M463.102 50.4951C457.617 44.9371 454.55 37.4299 454.572 29.6138C454.594 21.7978 457.703 14.3082 463.22 8.78133C468.737 3.25452 476.214 0.139779 484.016 0.117638C491.818 0.0954972 499.312 3.16775 504.86 8.66317C514.807 18.6277 516.148 33.9246 508.938 45.3631L510.088 55.7382L499.729 54.5857C494.066 58.167 487.356 59.7129 480.7 58.9696C474.045 58.2262 467.839 55.2379 463.102 50.4951Z" fill="white"/>
<path d="M467.364 28.7152L478.347 23.0495V24.6862L469.091 29.3322V29.3798L478.347 34.0278V35.6644L467.364 29.9967V28.7152Z" fill="#485E88"/>
<path d="M479.893 36.6126L486.495 19.4212H488.105L481.479 36.6126H479.893Z" fill="#485E88"/>
<path d="M500.583 30.0205L489.6 35.6644V34.0278L498.927 29.3798V29.3322L489.6 24.6862V23.0495L500.583 28.6934V30.0205Z" fill="#485E88"/>
<path opacity="0.2" d="M367.838 420.027C511.342 420.027 627.674 417.951 627.674 415.389C627.674 412.828 511.342 410.751 367.838 410.751C224.334 410.751 108.002 412.828 108.002 415.389C108.002 417.951 224.334 420.027 367.838 420.027Z" fill="#293752"/>
<path opacity="0.2" d="M72.2875 422.65C112.211 422.65 144.575 421.486 144.575 420.051C144.575 418.616 112.211 417.452 72.2875 417.452C32.3642 417.452 0 418.616 0 420.051C0 421.486 32.3642 422.65 72.2875 422.65Z" fill="#1D283D"/>
<path opacity="0.2" d="M569.155 428.986C606.358 428.986 636.516 427.568 636.516 425.818C636.516 424.068 606.358 422.65 569.155 422.65C531.953 422.65 501.795 424.068 501.795 425.818C501.795 427.568 531.953 428.986 569.155 428.986Z" fill="#1D283D"/>
<path d="M31.0228 333.066H34.9536L34.9536 244.576H31.0228L31.0228 333.066Z" fill="#8691A3"/>
<path d="M25.7058 273.303H57.5544C71.7925 273.303 73.9074 261.742 73.9074 247.478V223.921C73.9074 209.658 71.7925 198.094 57.5544 198.094H25.7058C11.4677 198.094 7.99829 209.658 7.99829 223.921V247.478C7.99829 261.742 11.4677 273.303 25.7058 273.303Z" fill="#485E88"/>
<path d="M45.7005 402.187H52.1324L52.1324 336.245H45.7005L45.7005 402.187Z" fill="#8691A3"/>
<path d="M81.8304 408.631V402.187H16.0044V408.631H81.8304Z" fill="#8691A3"/>
<path d="M28.9931 414.423C28.9931 412.796 28.5114 411.206 27.6091 409.853C26.7067 408.5 25.4241 407.445 23.9236 406.823C22.423 406.2 20.7718 406.037 19.1788 406.355C17.5858 406.672 16.1225 407.456 14.974 408.606C13.8256 409.757 13.0434 411.222 12.7266 412.818C12.4097 414.414 12.5723 416.068 13.1939 417.571C13.8154 419.075 14.868 420.359 16.2185 421.263C17.569 422.167 19.1567 422.65 20.7809 422.65C22.9589 422.65 25.0477 421.783 26.5878 420.24C28.1279 418.698 28.9931 416.605 28.9931 414.423Z" fill="#485E88"/>
<path d="M57.3762 414.423C57.3762 412.796 56.8945 411.206 55.9922 409.853C55.0898 408.5 53.8072 407.445 52.3067 406.823C50.8061 406.2 49.1549 406.037 47.5619 406.355C45.9689 406.672 44.5056 407.456 43.3571 408.606C42.2086 409.757 41.4265 411.222 41.1096 412.818C40.7928 414.414 40.9554 416.068 41.577 417.571C42.1985 419.075 43.2511 420.359 44.6016 421.263C45.9521 422.167 47.5398 422.65 49.164 422.65C51.342 422.65 53.4308 421.783 54.9709 420.24C56.511 418.698 57.3762 416.605 57.3762 414.423Z" fill="#485E88"/>
<path d="M85.7593 414.423C85.7593 412.796 85.2777 411.206 84.3753 409.853C83.4729 408.5 82.1904 407.445 80.6898 406.823C79.1892 406.2 77.538 406.037 75.945 406.355C74.352 406.672 72.8888 407.456 71.7403 408.606C70.5918 409.757 69.8096 411.222 69.4928 412.818C69.1759 414.414 69.3385 416.068 69.9601 417.571C70.5817 419.075 71.6342 420.359 72.9847 421.263C74.3352 422.167 75.9229 422.65 77.5471 422.65C79.7251 422.65 81.8139 421.783 83.354 420.24C84.8941 418.698 85.7593 416.605 85.7593 414.423Z" fill="#485E88"/>
<path d="M16.0401 325.227H96.7359C103.724 325.227 109.386 320.638 109.386 314.976C109.386 309.315 103.724 304.724 96.7359 304.724H16.0401C9.05378 304.724 3.39023 309.315 3.39023 314.976C3.38428 320.638 9.04784 325.227 16.0401 325.227Z" fill="#485E88"/>
<path d="M82.2958 325.227C82.2958 325.227 51.3324 352.914 16.0401 325.227H82.2958Z" fill="#8691A3"/>
<path d="M96.3378 304.726H55.1226C52.1211 304.726 49.2425 303.532 47.1201 301.406C44.9977 299.279 43.8054 296.396 43.8054 293.389L43.8054 268.532H96.3378V304.726Z" fill="#005487"/>
<path d="M163.372 413.304H162.942L162.845 415.471H152.48L152.762 412.602H153.1V412.572L154.053 402.195L163.312 402.308L169.067 407.069L185.43 411.568C185.43 411.568 186.668 412.11 186.644 412.789L186.6 414.03L186.573 414.78C186.573 414.78 186.375 415.111 185.101 415.482H166.425L165.338 414.03L164.279 413.364L163.372 413.304Z" fill="#BC8541"/>
<path d="M165.643 403.711L152.167 405.562L139.44 310.408L113.2 308.642L55.1226 304.724L54.8295 283.498L92.6763 284.924L149.205 288.977C150.947 289.108 152.628 289.673 154.096 290.622C155.564 291.57 156.772 292.871 157.609 294.407L160.393 299.509C161.522 301.579 161.922 303.97 161.528 306.295L165.643 403.711Z" fill="#005487"/>
<path d="M118.273 411.489H117.842L117.744 413.655H107.394L107.675 410.787H108.011V410.759L108.966 400.38L118.224 400.495L123.978 405.256L140.343 409.755C140.343 409.755 141.581 410.295 141.555 410.975L141.512 412.217L141.486 412.967C141.486 412.967 141.288 413.298 140.013 413.669H121.337L120.248 412.217L119.188 411.551L118.273 411.489Z" fill="#BC8541"/>
<path d="M120.848 401.092L107.382 402.943L126.571 305.42L75.6778 304.724L56.4118 304.597L56.5048 284.924H58.6554L140.599 286.628C141.383 286.623 142.153 286.83 142.829 287.228C143.505 287.627 144.06 288.201 144.436 288.89L148.5 296.337C148.987 297.229 149.146 298.264 148.95 299.261L120.848 401.092Z" fill="#005487"/>
<path d="M202.428 205.277L198.65 205.063L205.037 91.4205L208.815 91.6347C209.419 91.6687 210.01 91.8215 210.555 92.0845C211.1 92.3474 211.588 92.7154 211.991 93.1673C212.394 93.6192 212.704 94.1462 212.903 94.7182C213.103 95.2902 213.188 95.896 213.154 96.5009L207.286 200.929C207.252 201.534 207.1 202.126 206.837 202.672C206.575 203.218 206.207 203.707 205.756 204.111C205.305 204.515 204.779 204.826 204.208 205.026C203.637 205.226 203.032 205.311 202.428 205.277Z" fill="#485E88"/>
<path d="M154.659 229.234H197.036C197.036 229.234 197.654 226.379 197.036 225.774C196.302 225.058 194.999 225.589 194.999 225.589L154.659 227.676V229.234Z" fill="#485E88"/>
<path d="M228.683 188.205L215.882 142.646C216.3 116.737 213.154 96.5009 213.154 96.5009L207.286 200.929C211.746 187.439 214.066 172.781 215.14 158.821L225.922 189.1C229.988 203.099 226.342 221.09 213.152 226.337L199.921 226.444L200.046 229.351L213.512 229.234L213.969 229.138C228.903 223.397 233.162 203.627 228.683 188.205Z" fill="#78859D"/>
<path d="M578.762 229.351H133.066V237.421H578.762V229.351Z" fill="white"/>
<path d="M148.765 237.421H141.122V416.441H148.765V237.421Z" fill="#E3F1FB"/>
<path d="M567.839 237.421H560.195V416.441H567.839V237.421Z" fill="#E3F1FB"/>
<path d="M399.326 227.246C397.742 227.152 395.104 226.96 393.855 226.651C388.664 225.359 384.171 219.372 384.171 214.014V187.925H348.394V214.014C348.394 219.37 343.901 225.359 338.71 226.651C337.461 226.96 334.833 227.152 333.237 227.246C332.883 227.267 332.55 227.422 332.306 227.68C332.062 227.938 331.924 228.279 331.922 228.634V229.934H400.637V228.634C400.635 228.28 400.498 227.939 400.255 227.681C400.012 227.423 399.68 227.268 399.326 227.246Z" fill="#485E88"/>
<path d="M348.394 187.925V207.222L384.171 213.478V187.925H348.394Z" fill="#404041"/>
<path d="M440.505 92.4738H292.059C289.899 92.4738 288.148 94.228 288.148 96.3918V201.927C288.148 204.091 289.899 205.845 292.059 205.845H440.505C442.665 205.845 444.417 204.091 444.417 201.927V96.3918C444.417 94.228 442.665 92.4738 440.505 92.4738Z" fill="#485E88"/>
<path d="M439.371 97.5285H293.194V187.925H439.371V97.5285Z" fill="white"/>
<path d="M363.158 174.37L363.044 174.374V174.37H363.158Z" fill="#2A2A3B"/>
<path d="M363.158 92.4719L363.044 92.4758V92.4719H363.158Z" fill="#2A2A3B"/>
<path d="M447.716 226.678H328.518V229.071H447.716V226.678Z" fill="#424344"/>
<path d="M535.463 423.511H535.794L535.867 425.167H543.78L543.567 422.973H543.307V422.952L543.283 414.893H535.067L534.893 415.955L531.101 418.732L519.102 422.172C519.102 422.172 518.158 422.585 518.176 423.102L518.209 424.053L518.229 424.626C518.229 424.626 518.376 424.878 519.354 425.163H533.115L533.946 424.053L534.756 423.545L535.463 423.511Z" fill="#1A2C3D"/>
<path d="M605.749 423.511H606.08L606.153 425.167H614.074L613.858 422.973H613.599V422.952L613.084 414.893H604.87L604.695 415.955L601.394 418.732L589.396 422.172C589.396 422.172 588.451 422.585 588.469 423.102L588.503 424.053L588.524 424.626C588.524 424.626 588.669 424.878 589.649 425.163H603.408L604.24 424.053L605.05 423.545L605.749 423.511Z" fill="#1A2C3D"/>
<path d="M570.59 428.986L570.219 429V428.986H570.59Z" fill="#2A2A3B"/>
<path d="M603.062 415.84H614.296L615.082 317.355L618.345 218.837H588.344L597.982 317.355L603.062 415.84Z" fill="#485E88"/>
<path d="M533.37 415.358L544.594 415.871L565.88 324.973L592.661 218.975L563.397 218.837L558.668 256.06L548.798 324.189L533.37 415.358Z" fill="#485E88"/>
<path d="M572.031 115.168L566.076 116.726C565.205 116.953 564.278 116.825 563.501 116.369C562.724 115.913 562.159 115.166 561.931 114.293L557.09 95.7173L569.617 92.4441L574.459 111.02C574.685 111.893 574.557 112.82 574.101 113.597C573.646 114.375 572.901 114.94 572.031 115.168Z" fill="#F9C0B2"/>
<path d="M505.781 161.557L496.694 164.253L490.539 162.89L485.422 163.241L480.877 164.338L483.527 165.804L485.933 165.622L487.745 166.022L487.737 166.633L482.687 168.931L473.19 170.375L474.364 171.904L477.014 173.305L480.036 175.267L488.377 174.215L497.704 171.25L508.306 169.087L505.781 161.557Z" fill="#F9C0B2"/>
<path d="M543.636 164.132L542.743 163.592C541.322 162.732 540.286 161.358 539.848 159.754C539.411 158.15 539.606 156.439 540.392 154.975L573.892 108.116C577.075 103.252 582.617 101.593 587.318 104.44L588.277 105.103C592.978 107.949 593.386 113.496 590.313 118.057L552.343 162.21C551.415 163.588 549.994 164.556 548.373 164.914C546.752 165.272 545.056 164.992 543.636 164.132Z" fill="#485E88"/>
<path d="M503.724 171.821L499.282 162.222L545.707 151.255C551.791 150.172 554.024 156.161 553.26 159.656C552.49 163.15 550.583 164.957 545.735 165.584L503.724 171.821Z" fill="#38B9C6"/>
<path d="M570.91 97.4472L552.89 103.799L548.109 97.7804L544.369 95.5824L546.119 89.153L544.341 76.2703L563.825 70.196L570.91 97.4472Z" fill="#F9C0B2"/>
<path d="M568.506 88.2027C568.506 88.2027 560.797 85.7567 560.054 83.406C559.312 81.0552 556.86 75.2606 554.64 77.897C553.133 79.6824 551.274 79.4206 548.303 78.7738C545.333 78.1271 543.701 79.3115 541.254 76.1731C538.806 73.0348 539.576 70.5233 540.616 69.2973C541.137 68.6824 542.961 67.4306 547.884 68.0277C552.806 68.6248 556.609 65.0997 559.646 65.7047C564.445 66.6609 569.672 71.8128 570.538 76.7484C571.403 81.684 568.506 88.2027 568.506 88.2027Z" fill="#1A2C3D"/>
<path d="M162.229 217.285L168.354 215.676L175.123 217.511L182.091 224.47L180.042 225.04L178.998 224.068L172.445 226.28L172.051 223.933L171.332 223.482L165.908 224.502L161.859 224.328L154.415 225.917L155.502 218.348L162.229 217.285Z" fill="#F9C0B2"/>
<path d="M113.529 235.395L114.62 235.064C116.357 234.538 117.827 233.363 118.723 231.782C119.62 230.202 119.876 228.336 119.438 226.571L102.845 164.908C102.502 163.523 101.881 162.223 101.021 161.087C100.161 159.95 99.0791 159.001 97.8415 158.296C96.6038 157.591 95.236 157.145 93.8212 156.986C92.4063 156.826 90.9739 156.957 89.6109 157.369L89.2149 157.401C83.4721 159.143 80.7374 165.32 82.7612 170.988L104.821 230.993C105.432 232.706 106.676 234.118 108.297 234.937C109.918 235.756 111.791 235.92 113.529 235.395Z" fill="#0083C7"/>
<path d="M159.609 227.391L159.146 217.17C159.146 217.17 120.259 218.017 108.219 222.526C104.56 223.899 102.649 227.883 104.625 231.255L105.299 232.36C107.279 235.732 110.536 236.278 114.98 234.998L159.609 227.391Z" fill="#0083C7"/>
<path d="M152.213 213.984L158.128 211.389L164.958 212.973L172.18 219.668L170.152 220.314L169.073 219.38L162.605 221.834L162.126 219.503L161.391 219.079L156.009 220.299L151.955 220.275L144.575 222.138L145.383 214.536L152.213 213.984Z" fill="#FACDC1"/>
<path d="M44.1222 269.578L96.0705 270.843L98.1913 265.445L101.324 192.262L102.724 180.139C104.231 162.662 100.564 157.159 92.2941 156.802L71.4281 155.487C56.2395 155.618 49.968 165.427 48.56 175.088C48.56 175.088 44.6332 192.149 43.8411 197.928C41.8608 212.409 39.8013 256.233 39.8013 256.233L44.1222 269.578Z" fill="#0083C7"/>
<path d="M74.5966 149.079L94.823 151.261C95.3874 151.322 95.9564 151.2 96.4474 150.915C96.9384 150.63 97.3259 150.195 97.5537 149.674L100.562 142.832L103.831 142.001L100.32 132.453L100.443 116.293L74.7193 119.037L74.5966 149.079Z" fill="#F9C0B2"/>
<path d="M77.2659 160.091L83.674 160.599C85.7969 160.767 87.6682 160.232 87.8326 158.105L89.3297 137.892L75.2362 136.778L73.7252 155.925C73.6835 156.432 73.7421 156.942 73.8977 157.425C74.0532 157.909 74.3027 158.358 74.6316 158.745C74.9606 159.132 75.3627 159.45 75.8148 159.681C76.2668 159.912 76.76 160.051 77.2659 160.091Z" fill="#F9C0B2"/>
<path d="M75.3114 143.711C75.3114 143.711 75.8956 141.866 76.955 140.878C78.0145 139.89 82.1394 134.064 80.571 132.423C78.5749 130.336 80.6898 127.051 82.2879 127.204C83.08 127.281 83.8503 129.102 84.5791 129.426C85.1731 129.689 86.7574 126.351 86.6821 125.932C86.5336 125.149 86.9693 124.147 87.0168 123.353C87.0683 122.49 88.8703 120.378 89.7337 120.378C91.0387 120.378 99.0073 124.262 100.294 124.04C101.087 123.905 101.205 122.869 101.318 122.08C101.489 120.889 100.7 117.319 100.7 117.319C100.632 116.801 100.408 116.317 100.059 115.93L97.6112 113.274C97.3679 113.005 97.0707 112.79 96.739 112.644C96.4074 112.498 96.0487 112.424 95.6864 112.427L92.1219 115.071C92.0645 115.071 92.0051 115.071 91.9476 115.071L81.7413 114.125C81.2262 114.165 80.7349 114.359 80.3314 114.682L72.6084 119.84C72.0789 120.265 71.738 120.881 71.6598 121.556L70.8677 132.544C70.8329 132.849 70.853 133.157 70.9271 133.455L72.4103 138.132C72.4697 138.375 72.5651 138.608 72.6935 138.823L74.5272 143.651L75.3114 143.711Z" fill="#1A2C3D"/>
<path d="M107.649 232.717L108.651 232.169C110.245 231.3 111.444 229.85 112.001 228.119C112.557 226.388 112.428 224.509 111.639 222.872L72.0935 164.993C71.475 163.708 70.6024 162.563 69.5287 161.627C68.4549 160.69 67.2025 159.982 65.8473 159.545C64.4921 159.108 63.0625 158.952 61.6451 159.085C60.2277 159.219 58.8522 159.639 57.6019 160.321L56.5246 161C51.2492 163.88 50.5344 169.927 53.6671 175.055L98.2231 230.192C99.1704 231.744 100.677 232.872 102.432 233.342C104.187 233.812 106.055 233.589 107.649 232.717Z" fill="#339CD2"/>
<path d="M150.249 222.362L151.146 213.165L100.486 220.505C99.7087 221.014 99.0388 221.672 98.515 222.441C97.9911 223.21 97.6236 224.075 97.4334 224.986C97.2433 225.897 97.2342 226.837 97.4067 227.751C97.5793 228.666 97.93 229.538 98.4389 230.317C100.578 233.592 103.914 234.336 108.291 232.842L150.249 222.362Z" fill="#339CD2"/>
<path d="M618.078 220.929L562.967 223.401L560.028 218.402L545.84 145.722L544.105 133.683C542.782 118.838 545.753 109.796 553.864 108.15L575.597 102.629C590.622 100.377 598.604 111.02 601.503 120.344L607.493 142.344L620.262 207.071L618.078 220.929Z" fill="#38B9C6"/>
<path d="M507.007 229.071L511.866 229.351L518.457 226.502L520.793 226.93L519.251 229.351H522.7L525.13 224.962L525.322 221.294L530.396 213.419L523.031 211.187L517.391 219.059L512.401 223.74L501.795 228.21V229.351L507.007 229.071Z" fill="#F9C0B2"/>
<path d="M545.547 182.186L544.503 182.151C542.844 182.094 541.271 181.401 540.108 180.214C538.945 179.028 538.282 177.439 538.255 175.777L544.677 118.503C545.089 112.702 549.119 108.544 554.608 108.733L555.767 108.842C561.258 109.04 564.314 113.672 563.854 119.158L552.212 176.255C552.073 177.911 551.303 179.45 550.062 180.554C548.822 181.658 547.205 182.243 545.547 182.186Z" fill="#60C7D1"/>
<path d="M528.649 218.837L519.126 215.266L538.949 172.589C541.883 167.139 547.959 169.103 550.214 171.881C552.468 174.658 552.696 177.274 550.181 181.464L528.649 218.837Z" fill="#60C7D1"/>
<path d="M684.775 241.969C684.775 241.969 728.64 274.078 706.117 339.9L712.255 340.271C712.255 340.271 730.61 274.4 684.775 241.969Z" fill="#2A8B95"/>
<path d="M765.861 247.46C765.861 247.46 720.711 269.613 730.596 333.248L724.949 332.592C724.949 332.592 718.855 269.587 765.861 247.46Z" fill="#2A8B95"/>
<path d="M687.643 253.239C692.069 245.678 694.556 235.688 695.564 230.945C694.096 229.556 693.653 227.477 693.29 225.325C692.894 222.944 690.56 217.15 690.56 217.15C689.795 212.627 684.862 211.064 681.478 214.269L670.973 224.224C662.994 231.782 659.848 243.687 663.166 253.746L671.286 272.485C671.798 274.039 672.757 279.079 674.135 281.995C674.432 280.942 674.711 278.702 674.957 277.699C678.298 264.046 681.635 263.503 687.643 253.239Z" fill="#F58D8A"/>
<path d="M677.569 280.335L697.815 268.861C708.247 262.949 715.44 251.485 716.509 239.015L717.291 229.997C717.717 225.077 714.398 223.115 709.172 224.077C707.154 224.448 705.113 225.267 701.273 227.116C699.582 227.928 697.324 230.572 695.566 230.953C694.56 235.696 692.072 245.686 687.645 253.247C681.636 263.503 678.3 264.046 674.961 277.707C674.715 278.71 674.436 280.95 674.139 282.003C675.367 280.964 676.426 280.982 677.569 280.335Z" fill="#F2706D"/>
<path d="M755.217 237.485C753.91 238.011 752.334 237.753 750.983 236.505L744.462 230.471C741.492 227.723 738.63 228.921 739.038 233.19C739.187 234.74 738.816 240.1 738.816 240.1C738.741 250.967 742.523 257.954 749.644 265.137C752.918 268.442 758.32 275.83 762.104 278.958C762.997 279.696 767.1 283.469 768.009 283.322C766.465 274.778 763.968 264.931 760.843 257.416C757.718 249.902 756.064 242.645 755.217 237.485Z" fill="#F2706D"/>
<path d="M770.606 276.264C772.857 272.495 776.315 263.685 776.863 258.377C777.505 252.155 775.998 243.183 770.261 235.642C768.374 233.159 768.128 227.664 767.039 225.142C765.455 221.451 760.397 223.182 759.514 227.507C759.098 229.526 757.677 234.45 757.677 234.45C757.281 236.011 756.356 237.043 755.223 237.495C756.077 242.653 757.712 249.882 760.849 257.42C763.986 264.959 766.471 274.782 768.016 283.327C769.047 280.387 767.392 281.642 770.606 276.264Z" fill="#F58D8A"/>
<path d="M731.153 239.729C731.153 239.729 727.646 254.409 724.311 282.003C722.846 294.126 723.236 307.594 722.667 320.635H724.672C724.672 320.635 723.25 301.428 725.278 282.19C727.628 259.894 731.177 243.443 731.813 239.277C733.062 230.965 731.153 239.729 731.153 239.729Z" fill="#0083C7"/>
<path d="M729.022 252.887C727.091 252.491 726.921 249.39 727.563 246.833C729.147 240.54 731.464 229.802 733.375 224.321C734.226 221.883 734.652 219.856 735.375 219.891L735.771 219.929C736.551 220.338 736.799 222.147 736.61 223.742C735.872 230.001 733.961 242.356 732.616 248.737C732.076 251.328 730.953 253.284 729.022 252.887Z" fill="#FECE71"/>
<path d="M695.508 277.091C695.508 277.091 703.184 281.682 708.806 300.627C714.427 319.572 718.178 321.615 718.178 321.615L716.451 322.302C712.255 314.478 707.99 305.44 706.275 298.298C702.441 282.327 695.508 277.091 695.508 277.091Z" fill="#38B9C6"/>
<path d="M711.578 315.053C711.578 315.053 705.362 305.156 703.469 294.6C701.575 284.045 697.637 279.25 695.508 277.091C695.508 277.091 702.439 282.327 706.275 298.296C707.99 305.438 712.255 314.478 716.451 322.3L715.435 322.697L711.578 315.053Z" fill="#A6A8AB"/>
<path d="M711.578 315.053C711.578 315.053 705.362 305.156 703.469 294.6C701.575 284.045 697.637 279.25 695.508 277.091C695.508 277.091 702.439 282.327 706.275 298.296C707.99 305.438 712.255 314.478 716.451 322.3L715.435 322.697L711.578 315.053Z" fill="#85D2DA"/>
<path d="M749.926 270.868C749.926 270.868 741.52 276.026 735.555 296.973C729.591 317.92 725.482 320.223 725.482 320.223L727.392 320.959C731.923 312.282 736.515 302.26 738.317 294.376C742.357 276.723 749.926 270.868 749.926 270.868Z" fill="#38B9C6"/>
<path d="M732.686 312.909C732.686 312.909 739.419 301.923 741.373 290.264C743.328 278.605 747.613 273.271 749.934 270.868C749.934 270.868 742.357 276.723 738.325 294.372C736.523 302.26 731.931 312.282 727.4 320.955L728.527 321.387L732.686 312.909Z" fill="#A6A8AB"/>
<path d="M732.686 312.909C732.686 312.909 739.419 301.923 741.373 290.264C743.328 278.605 747.613 273.271 749.934 270.868C749.934 270.868 742.357 276.723 738.325 294.372C736.523 302.26 731.931 312.282 727.4 320.955L728.527 321.387L732.686 312.909Z" fill="#85D2DA"/>
<path d="M737.712 256.159C737.712 256.159 729.816 263.318 727.674 286.768C725.531 310.219 721.626 313.484 721.626 313.484L723.804 313.881C726.878 303.763 729.745 292.19 730.086 283.453C730.836 263.897 737.712 256.159 737.712 256.159Z" fill="#38B9C6"/>
<path d="M727.805 304.269C727.805 304.269 732.755 291.252 732.502 278.48C732.248 265.709 735.728 259.182 737.712 256.163C737.712 256.163 730.836 263.899 730.086 283.457C729.751 292.186 726.878 303.759 723.804 313.885L725.086 314.119L727.805 304.269Z" fill="#A6A8AB"/>
<path d="M727.805 304.269C727.805 304.269 732.755 291.252 732.502 278.48C732.248 265.709 735.728 259.182 737.712 256.163C737.712 256.163 730.836 263.899 730.086 283.457C729.751 292.186 726.878 303.759 723.804 313.885L725.086 314.119L727.805 304.269Z" fill="#85D2DA"/>
<path d="M718.885 239.947C718.885 239.947 727.145 251.36 723.533 282.265C719.921 313.17 724.081 318.455 724.081 318.455L721.158 318.374C719.939 304.444 719.376 288.709 721.317 277.31C725.667 251.838 718.885 239.947 718.885 239.947Z" fill="#38B9C6"/>
<path d="M718.6 304.864C718.6 304.864 715.742 286.681 719.548 270.234C723.355 253.786 720.628 244.399 718.885 239.955C718.885 239.955 725.667 251.838 721.317 277.326C719.372 288.716 719.931 304.452 721.158 318.39L719.438 318.344L718.6 304.864Z" fill="#A6A8AB"/>
<path d="M718.6 304.864C718.6 304.864 715.742 286.681 719.548 270.234C723.355 253.786 720.628 244.399 718.885 239.955C718.885 239.955 725.667 251.838 721.317 277.326C719.372 288.716 719.931 304.452 721.158 318.39L719.438 318.344L718.6 304.864Z" fill="#85D2DA"/>
<path d="M740.449 354.425H700.027L699.154 344.623L696.32 343.187L693.746 314.266L691.578 313.899L690.76 308.513H749.682L748.867 313.881L746.659 314.373L743.843 342.951L741.411 344.643L740.449 354.425Z" fill="#E3F1FB"/>
<path d="M357.978 109.316H321.157V110.217H357.978V109.316Z" fill="#58595B"/>
<path d="M342.986 111.972H321.872V112.873H342.986V111.972Z" fill="#0083C7"/>
<path d="M326.767 117.951H321.565V118.852H326.767V117.951Z" fill="#F2706D"/>
<path d="M342.423 117.951H328.755V118.852H342.423V117.951Z" fill="#0083C7"/>
<path d="M332.429 120.786H327.023V121.687H332.429V120.786Z" fill="#58595B"/>
<path d="M338.801 120.786H333.55V121.687H338.801V120.786Z" fill="#58595B"/>
<path d="M350.992 120.786H341.607V121.687H350.992V120.786Z" fill="#38B9C6"/>
<path d="M336.56 123.621H331.969V124.522H336.56V123.621Z" fill="#F2706D"/>
<path d="M341.964 123.621H337.68V124.522H341.964V123.621Z" fill="#58595B"/>
<path d="M357.162 123.621H343.647V124.522H357.162V123.621Z" fill="#58595B"/>
<path d="M389.393 123.621H368.739V124.522H389.393V123.621Z" fill="#58595B"/>
<path d="M401.019 123.621H391.993V124.522H401.019V123.621Z" fill="#38B9C6"/>
<path d="M335.463 126.458H331.969V127.359H335.463V126.458Z" fill="#F2706D"/>
<path d="M342.883 126.458H337.629V127.359H342.883V126.458Z" fill="#58595B"/>
<path d="M362.976 126.458H343.851V127.359H362.976V126.458Z" fill="#38B9C6"/>
<path d="M364.915 129.293H339.568V130.193H364.915V129.293Z" fill="#0083C7"/>
<path d="M339.568 132.128H331.969V133.028H339.568V132.128Z" fill="#58595B"/>
<path d="M335.132 134.964H331.969V135.865H335.132V134.964Z" fill="#F2706D"/>
<path d="M342.831 134.964H337.884V135.865H342.831V134.964Z" fill="#38B9C6"/>
<path d="M368.28 134.964H346.146V135.865H368.28V134.964Z" fill="#58595B"/>
<path d="M366.547 137.799H338.14V138.7H366.547V137.799Z" fill="#58595B"/>
<path d="M338.7 140.634H331.969V141.535H338.7V140.634Z" fill="#58595B"/>
<path d="M337.223 143.469H331.969V144.369H337.223V143.469Z" fill="#F2706D"/>
<path d="M341.633 143.469H338.7V144.369H341.633V143.469Z" fill="#0083C7"/>
<path d="M358.285 143.469H344.566V144.369H358.285V143.469Z" fill="#58595B"/>
<path d="M347.013 146.306H339.16V147.206H347.013V146.306Z" fill="#38B9C6"/>
<path d="M381.589 146.306H350.225V147.206H381.589V146.306Z" fill="#58595B"/>
<path d="M394.952 146.306H384.548V147.206H394.952V146.306Z" fill="#38B9C6"/>
<path d="M421.42 146.306H398.215V147.206H421.42V146.306Z" fill="#58595B"/>
<path d="M334.06 149.14H322.125V150.041H334.06V149.14Z" fill="#58595B"/>
<path d="M349.92 149.14H339.16V150.041H349.92V149.14Z" fill="#58595B"/>
<path d="M340.168 151.975H331.969V152.876H340.168V151.975Z" fill="#58595B"/>
<path d="M334.825 154.812H327.839V155.713H334.825V154.812Z" fill="#0083C7"/>
<path d="M329.571 157.647H322.125V158.548H329.571V157.647Z" fill="#58595B"/>
<path d="M326.256 162.892H322.125V163.793H326.256V162.892Z" fill="#F2706D"/>
<path d="M334.058 162.892H328.347V163.793H334.058V162.892Z" fill="#58595B"/>
<path d="M351.196 162.892H335.641V163.793H351.196V162.892Z" fill="#58595B"/>
<path d="M338.853 165.653H327.124V166.554H338.853V165.653Z" fill="#58595B"/>
<path d="M350.687 165.653H342.322V166.554H350.687V165.653Z" fill="#0083C7"/>
<path d="M355.683 168.417H332.734V169.317H355.683V168.417Z" fill="#58595B"/>
<path d="M337.375 171.178H332.734V172.079H337.375V171.178Z" fill="#F2706D"/>
<path d="M342.78 171.178H339.465V172.079H342.78V171.178Z" fill="#38B9C6"/>
<path d="M375.826 171.178H344.922V172.079H375.826V171.178Z" fill="#58595B"/>
<path d="M385.159 171.178H378.989V172.079H385.159V171.178Z" fill="#58595B"/>
<path d="M334.061 173.942H327.124V174.842H334.061V173.942Z" fill="#58595B"/>
<path d="M331.662 176.703H322.125V177.604H331.662V176.703Z" fill="#58595B"/>
<path d="M278.748 304.726H339.92V268.532H278.748V304.726Z" fill="#005487"/>
<path d="M375.082 415.75H374.65L374.555 417.919H364.202L364.483 415.05H364.822V415.02L365.776 404.641L375.034 404.756L380.789 409.517L397.154 414.016C397.154 414.016 398.391 414.556 398.367 415.236L398.322 416.478L398.296 417.228C398.296 417.228 398.098 417.559 396.825 417.93H378.155L377.068 416.478L376.008 415.812L375.082 415.75Z" fill="#0D0D10"/>
<path d="M377.678 406.198L364.212 408.047L372.608 309.825L356.792 308.634L279.439 304.716V283.119L336.259 284.924L382.363 288.394C384.105 288.525 385.786 289.091 387.254 290.039C388.722 290.987 389.929 292.288 390.767 293.823L393.552 298.928C394.682 300.997 395.083 303.387 394.688 305.712L377.678 406.198Z" fill="#005487"/>
<path d="M339.178 411.489H338.746L338.651 413.655H328.298L328.579 410.787H328.918V410.759L329.872 400.38L339.13 400.495L344.885 405.256L361.249 409.755C361.249 409.755 362.487 410.295 362.463 410.975L362.418 412.217L362.392 412.967C362.392 412.967 362.194 413.298 360.921 413.669H342.251L341.164 412.217L340.104 411.551L339.178 411.489Z" fill="#0D0D10"/>
<path d="M341.774 401.092L328.298 402.943L339.766 303.367L319.25 304.724L278.748 306.069L280.162 284.924H302.228L353.8 284.575C354.584 284.57 355.355 284.778 356.031 285.176C356.706 285.575 357.262 286.149 357.638 286.838L361.701 294.286C362.187 295.177 362.346 296.211 362.151 297.208L341.774 401.092Z" fill="#005487"/>
<path d="M310.947 157.855L332.407 156.211C332.977 156.172 333.509 155.915 333.893 155.492C334.277 155.068 334.483 154.513 334.467 153.941L334.269 146.448L338.459 146.55L335.148 138.269L334.059 136.484L334.15 123.859L307.363 123.623L310.125 151.705L310.947 157.855Z" fill="#F9C0B2"/>
<path d="M310.763 173.779L322.72 174.62C322.873 174.631 323.027 174.611 323.172 174.563C323.318 174.514 323.452 174.437 323.568 174.336C323.684 174.235 323.779 174.112 323.848 173.974C323.916 173.836 323.957 173.686 323.967 173.533L325.34 153.709L310.28 152.65L308.959 171.694C308.923 172.21 309.093 172.719 309.431 173.11C309.769 173.501 310.248 173.741 310.763 173.779Z" fill="#F9C0B2"/>
<path d="M335.748 124.502C335.524 123.708 335.13 122.748 335.047 122.475C333.554 117.547 323.43 116.571 323.43 116.571L313.818 116.845C313.282 116.997 309.462 119.324 309.107 119.753L304.432 126.035C303.964 126.601 302.81 131.749 302.877 132.479L305.765 142.87C305.796 143.199 305.885 143.521 306.028 143.82L307.315 147.079C307.432 147.323 307.79 148.666 307.972 148.865L309.769 151.344L315.339 151.1C316.193 151.066 317.02 150.797 317.731 150.323C318.442 149.849 319.01 149.188 319.371 148.412C320.302 146.399 321.286 143.705 320.721 142.263C319.585 139.358 318.975 136.555 320.442 135.627C322.074 134.593 322.508 136.839 323.351 137.016C324.034 137.164 324.286 133.304 324.26 132.85C324.253 132.486 324.285 132.123 324.357 131.767C325.149 131.245 324.468 130.872 326.508 131.282C329.597 131.905 329.708 132.82 332.567 127.751C333.344 126.373 333.215 124.593 332.858 123.901C333.164 124.05 333.46 124.22 333.742 124.411C334.417 125.702 333.989 127.351 334.169 127.317C334.924 127.17 335.979 125.329 335.748 124.502Z" fill="#1A2C3D"/>
<path opacity="0.2" d="M325.797 156.679L326.391 155.75L330.684 154.193C331.263 154.04 331.793 153.741 332.223 153.324C332.653 152.907 332.969 152.387 333.142 151.813L334.344 149.432L334.375 150.601L334.467 153.941C334.481 154.511 334.275 155.064 333.892 155.485C333.509 155.907 332.978 156.164 332.411 156.203L325.797 156.679Z" fill="#005486"/>
<path d="M367.274 219.015L373.107 216.547L380.07 217.398L387.956 223.29L386.009 224.147L384.837 223.334L378.666 226.46L377.941 224.193L377.167 223.848L371.943 225.633L367.909 226.038L360.768 228.672V221.029L367.274 219.015Z" fill="#F9C0B2"/>
<path d="M323.825 247.377L324.9 246.992C326.609 246.379 328.017 245.13 328.833 243.506C329.65 241.881 329.811 240.004 329.284 238.264L306.026 173.67C305.615 172.304 304.93 171.036 304.014 169.944C303.098 168.852 301.97 167.958 300.698 167.316C299.426 166.674 298.037 166.299 296.616 166.212C295.194 166.126 293.77 166.33 292.43 166.812C291.089 167.293 289.861 168.042 288.818 169.013C287.775 169.984 286.941 171.158 286.365 172.462C285.789 173.766 285.484 175.174 285.467 176.6C285.451 178.026 285.725 179.441 286.271 180.758L314.908 243.424C315.603 245.103 316.917 246.45 318.577 247.186C320.237 247.922 322.116 247.991 323.825 247.377Z" fill="#FBB157"/>
<path d="M366.117 229.392L364.204 219.34C364.204 219.34 328.757 228.944 317.49 235.133C314.062 237.014 312.737 241.226 315.173 244.283L315.997 245.274C318.434 248.331 321.739 248.405 325.953 246.504L366.117 229.392Z" fill="#FBB157"/>
<path d="M278.764 277.828H339.92L341.926 271.966L347.493 205.541L347.423 190.131C346.469 173.864 341.813 166.667 332.769 166.193L303.04 164.521C285.459 164.154 281.829 178.223 281.356 187.279L280.366 209.675L276.269 268.679L278.764 277.828Z" fill="#FBB157"/>
<path d="M408.483 218.212H413.378L427.032 225.643L426.078 226.994L419.891 226.686L412.267 229.101L406.18 228.444L397.138 231.487L395.259 224.288L408.483 218.212Z" fill="#F9C0B2"/>
<path d="M351.907 252.65L353.043 252.535C354.849 252.353 356.516 251.483 357.699 250.104C358.882 248.725 359.49 246.943 359.398 245.128L345.374 176.411C345.303 174.987 344.944 173.591 344.318 172.31C343.692 171.029 342.812 169.888 341.732 168.959C340.652 168.029 339.394 167.329 338.035 166.902C336.677 166.474 335.246 166.328 333.829 166.473L332.571 166.671C326.595 167.266 323.597 172.563 324.496 178.512L344.203 246.655C344.474 248.454 345.425 250.08 346.859 251.195C348.293 252.311 350.1 252.832 351.907 252.65Z" fill="#FBB157"/>
<path d="M400.033 232.808L398.429 221.786L346.942 240.081C345.48 241.258 344.543 242.968 344.339 244.836C344.135 246.704 344.68 248.577 345.853 250.043C348.301 253.096 351.693 253.513 355.905 251.601L400.033 232.808Z" fill="#FBB157"/>
<path d="M308.052 164.802L309.674 161.38L324.744 162.327L326.433 165.836L308.052 164.802Z" fill="#FBB157"/>
<path d="M306.808 402.187H313.24V336.245H306.808V402.187Z" fill="#8691A3"/>
<path d="M342.938 408.633V402.189H277.112V408.633H342.938Z" fill="#8691A3"/>
<path d="M290.109 414.423C290.109 412.796 289.627 411.205 288.724 409.852C287.822 408.5 286.539 407.445 285.039 406.823C283.538 406.2 281.887 406.037 280.294 406.355C278.701 406.672 277.237 407.456 276.089 408.607C274.94 409.757 274.158 411.224 273.842 412.819C273.525 414.415 273.688 416.07 274.31 417.573C274.932 419.076 275.985 420.361 277.335 421.264C278.686 422.168 280.274 422.65 281.898 422.65C282.977 422.65 284.045 422.437 285.041 422.024C286.037 421.61 286.942 421.004 287.705 420.24C288.467 419.476 289.072 418.569 289.484 417.571C289.897 416.573 290.109 415.503 290.109 414.423Z" fill="#485E88"/>
<path d="M318.486 414.423C318.486 412.796 318.004 411.206 317.102 409.853C316.199 408.5 314.917 407.445 313.416 406.823C311.916 406.2 310.265 406.037 308.672 406.355C307.079 406.672 305.615 407.456 304.467 408.606C303.318 409.757 302.536 411.222 302.219 412.818C301.902 414.414 302.065 416.068 302.687 417.571C303.308 419.075 304.361 420.359 305.711 421.263C307.062 422.167 308.649 422.65 310.274 422.65C312.452 422.65 314.54 421.783 316.081 420.24C317.621 418.698 318.486 416.605 318.486 414.423Z" fill="#485E88"/>
<path d="M346.869 414.423C346.869 412.796 346.387 411.206 345.485 409.853C344.583 408.5 343.3 407.445 341.799 406.823C340.299 406.2 338.648 406.037 337.055 406.355C335.462 406.672 333.998 407.456 332.85 408.606C331.701 409.757 330.919 411.222 330.602 412.818C330.286 414.414 330.448 416.068 331.07 417.571C331.691 419.075 332.744 420.359 334.094 421.263C335.445 422.167 337.033 422.65 338.657 422.65C340.835 422.65 342.924 421.783 344.464 420.24C346.004 418.698 346.869 416.605 346.869 414.423Z" fill="#485E88"/>
<path d="M269.118 325.227H351.425C358.412 325.227 364.075 320.638 364.075 314.976C364.075 309.315 358.412 304.724 351.425 304.724H269.118C262.129 304.724 256.468 309.315 256.468 314.976C256.47 320.638 262.131 325.227 269.118 325.227Z" fill="#485E88"/>
<path d="M343.403 325.227C343.403 325.227 312.442 352.908 277.142 325.227H343.403Z" fill="#8691A3"/>
<path d="M283.033 273.303H321.086C335.324 273.303 346.867 261.74 346.867 247.476V223.921C346.867 209.657 335.324 198.094 321.086 198.094H283.033C268.795 198.094 257.252 209.657 257.252 223.921V247.476C257.252 261.74 268.795 273.303 283.033 273.303Z" fill="#485E88"/>
<path d="M300.097 333.066H304.028V244.576H300.097V333.066Z" fill="#8691A3"/>
<path opacity="0.2" d="M719 429C736.121 429 750 427.657 750 426C750 424.343 736.121 423 719 423C701.879 423 688 424.343 688 426C688 427.657 701.879 429 719 429Z" fill="#1D283D"/>
</g>
<defs>
<clipPath id="clip0">
<rect width="777" height="429" fill="white"/>
</clipPath>
</defs>
</svg>
