<svg width="594" height="415" viewBox="0 0 594 415" fill="none" xmlns="http://www.w3.org/2000/svg">
<g clip-path="url(#clip0)">
<path d="M575.387 374.748L575.432 382.939H574.412L571.737 373.931L575.387 374.748Z" fill="#2B455F"/>
<path d="M581.055 386.547C581.055 387.718 580.708 388.863 580.057 389.837C579.407 390.811 578.483 391.57 577.402 392.018C576.321 392.466 575.131 392.584 573.983 392.355C572.835 392.127 571.781 391.563 570.953 390.734C570.126 389.906 569.562 388.851 569.334 387.702C569.106 386.553 569.223 385.363 569.671 384.281C570.119 383.198 570.877 382.274 571.85 381.623C572.823 380.972 573.967 380.625 575.137 380.625C576.707 380.625 578.212 381.249 579.322 382.359C580.431 383.47 581.055 384.976 581.055 386.547Z" fill="#231F20"/>
<path opacity="0.2" d="M272.134 414.932C297.665 414.932 318.361 413.581 318.361 411.914C318.361 410.248 297.665 408.896 272.134 408.896C246.604 408.896 225.907 410.248 225.907 411.914C225.907 413.581 246.604 414.932 272.134 414.932Z" fill="#005386"/>
<path opacity="0.2" d="M434.756 414.932C462.327 414.932 484.678 413.581 484.678 411.914C484.678 410.248 462.327 408.896 434.756 408.896C407.185 408.896 384.834 410.248 384.834 411.914C384.834 413.581 407.185 414.932 434.756 414.932Z" fill="#005386"/>
<path opacity="0.2" d="M590.758 389.202H115.883C114.092 389.202 112.641 390.654 112.641 392.446V392.514C112.641 394.306 114.092 395.759 115.883 395.759H590.758C592.548 395.759 594 394.306 594 392.514V392.446C594 390.654 592.548 389.202 590.758 389.202Z" fill="#005386"/>
<path d="M191.606 382.939L191.56 374.748L162.994 368.327H155.943L127.083 374.748V377.993H127.105L127.083 382.939H128.103L129.667 377.652L156.011 373.976H162.836L188.885 377.176L190.585 382.939H191.606Z" fill="#2B455F"/>
<path d="M132.932 386.547C132.932 387.721 132.583 388.869 131.93 389.844C131.277 390.819 130.348 391.578 129.263 392.024C128.178 392.47 126.985 392.584 125.835 392.35C124.686 392.115 123.631 391.545 122.807 390.71C121.982 389.875 121.424 388.813 121.203 387.66C120.983 386.507 121.11 385.314 121.568 384.233C122.026 383.152 122.795 382.232 123.777 381.589C124.759 380.947 125.91 380.611 127.083 380.625C128.64 380.643 130.128 381.274 131.223 382.383C132.318 383.492 132.932 384.988 132.932 386.547Z" fill="#231F20"/>
<path d="M197.228 386.547C197.232 387.724 196.887 388.877 196.236 389.858C195.585 390.839 194.658 391.604 193.572 392.057C192.485 392.51 191.289 392.63 190.135 392.401C188.98 392.172 187.92 391.606 187.088 390.773C186.256 389.94 185.69 388.879 185.461 387.724C185.233 386.568 185.352 385.371 185.805 384.284C186.257 383.197 187.022 382.268 188.002 381.617C188.982 380.965 190.134 380.62 191.311 380.625C192.88 380.625 194.385 381.248 195.495 382.359C196.605 383.47 197.228 384.976 197.228 386.547Z" fill="#231F20"/>
<path d="M575.387 377.516L546.662 373.976H539.838L510.909 377.993V374.748L539.77 368.327H546.844L575.387 374.748V377.516Z" fill="#2B455F"/>
<path d="M510.909 374.748L510.841 382.939H511.884L514.537 373.931L510.909 374.748Z" fill="#2B455F"/>
<path d="M516.758 386.547C516.758 387.718 516.411 388.863 515.761 389.837C515.111 390.811 514.187 391.57 513.106 392.018C512.024 392.466 510.835 392.584 509.687 392.355C508.539 392.127 507.485 391.563 506.657 390.734C505.83 389.906 505.266 388.851 505.038 387.702C504.809 386.553 504.927 385.363 505.374 384.281C505.822 383.198 506.581 382.274 507.554 381.623C508.527 380.972 509.671 380.625 510.841 380.625C512.411 380.625 513.916 381.249 515.025 382.359C516.135 383.47 516.758 384.976 516.758 386.547Z" fill="#231F20"/>
<path d="M545.302 0H156.85V220.297H545.302V0Z" fill="white"/>
<path d="M227.471 220.297H156.85V196.563H218.312L227.471 206.048V220.297Z" fill="#F1F2F2"/>
<path d="M161.475 196.563H156.85V371.322H161.475V196.563Z" fill="#2B455F"/>
<path d="M545.302 196.563H540.677V370.777H545.302V196.563Z" fill="#2B455F"/>
<path d="M254.518 375.338L246.402 389.043L252.637 394.806L262.136 378.288L254.518 375.338Z" fill="#FAC0B3"/>
<path d="M239.805 397.824L257.715 406.9L268.076 409.169L268.507 408.352C268.725 407.926 268.803 407.442 268.729 406.97C268.656 406.497 268.435 406.059 268.099 405.72L259.824 404.767L252.251 394.261L255.675 388.248L249.508 384.368L244.974 391.017L240.984 395.555L239.805 397.824Z" fill="#FAC0B3"/>
<path d="M268.099 405.743L260.685 404.291H260.39L253.816 400.161L244.248 391.085L241.074 395.623L239.805 397.892L257.693 408.148L268.076 409.26L268.507 408.443C268.741 408.009 268.828 407.512 268.754 407.024C268.68 406.537 268.45 406.087 268.099 405.743Z" fill="#16242D"/>
<path d="M271.409 384.754L270.774 400.66L278.981 402.77L279.502 383.733L271.409 384.754Z" fill="#FAC0B3"/>
<path d="M273.041 98.9286C272.391 100.981 272.567 103.207 273.533 105.131C274.499 107.055 276.177 108.526 278.21 109.23C279.238 109.474 280.304 109.512 281.346 109.34C282.388 109.168 283.385 108.79 284.28 108.228C285.175 107.666 285.949 106.932 286.557 106.068C287.165 105.203 287.596 104.227 287.823 103.194C288.438 101.16 288.244 98.9659 287.281 97.0714C286.317 95.1769 284.659 93.7285 282.654 93.0292C281.635 92.7764 280.577 92.7289 279.54 92.8895C278.502 93.0501 277.508 93.4155 276.613 93.9645C275.719 94.5135 274.942 95.2352 274.329 96.0874C273.716 96.9396 273.278 97.9054 273.041 98.9286Z" fill="#132233"/>
<path d="M265.492 130.172L282.722 129.106C283.452 129.062 284.15 128.792 284.719 128.332C285.287 127.873 285.699 127.247 285.896 126.542L287.71 120.302L289.092 119.44L287.959 111.453L285.692 98.7241L263.678 100.108L265.492 130.172Z" fill="#FAC0B3"/>
<path d="M265.333 139.861L275.943 139.679L273.63 125.112L265.106 124.273L265.333 139.861Z" fill="#FAC0B3"/>
<path d="M269.504 411.188L299.567 411.914V411.37C299.554 410.893 299.391 410.433 299.102 410.054C298.813 409.676 298.413 409.397 297.957 409.259L285.782 406.015L278.528 402.498L278.686 395.691L271.431 395.169L270.638 403.156L269.255 408.987L269.504 411.188Z" fill="#FAC0B3"/>
<path d="M259.325 384.21L251.231 378.582L291.156 304.999L271.205 222.021L298.184 222.657L310.97 303.819C311.366 305.745 311.34 307.735 310.894 309.65C310.447 311.566 309.592 313.362 308.386 314.914L259.325 384.21Z" fill="#04698E"/>
<path d="M280.727 389.406H270.366L269.686 313.916L263.519 260.209L260.459 248.161C259.124 245.76 258.311 243.104 258.072 240.367C257.834 237.63 258.176 234.873 259.076 232.278L262.703 221.613L294.624 222.952L288.186 310.354L280.727 389.406Z" fill="#058CBD"/>
<path d="M297.957 225.811L262.136 222.181C261.946 222.164 261.762 222.1 261.603 221.994C261.444 221.888 261.314 221.743 261.226 221.573C261.138 221.404 261.094 221.214 261.098 221.023C261.103 220.831 261.156 220.644 261.252 220.479L263.519 203.325L262.431 174.917C257.897 164.117 254.541 141.245 262.431 138.023C263.293 137.66 264.109 134.733 265.038 134.643L275.762 136.276L277.303 137.955C284.105 155.744 296.665 154.269 296.121 174.1L299.385 218.187C299.544 225.176 298.819 225.902 297.957 225.811Z" fill="#57C5C7"/>
<path d="M345.385 194.975L334.39 193.455L331.488 191.867H332.123L335.319 191.39V189.643H331.397H328.722H326.251H322.306L289.931 188.963L275.739 147.281C275.047 145.304 273.6 143.683 271.714 142.775C269.828 141.866 267.659 141.745 265.684 142.437C263.709 143.129 262.089 144.578 261.182 146.465C260.274 148.352 260.152 150.523 260.844 152.5L278.301 196.065C279.05 197.571 280.22 198.828 281.669 199.681C283.117 200.535 284.783 200.95 286.462 200.875L316.729 195.406L322.193 194.658L332.032 198.288L345.635 197.358L345.385 194.975Z" fill="#FAC0B3"/>
<path d="M289.41 186.489L275.807 147.281C275.496 146.297 274.993 145.385 274.328 144.597C273.663 143.808 272.849 143.159 271.932 142.687C271.016 142.215 270.015 141.928 268.987 141.844C267.96 141.76 266.926 141.881 265.945 142.198C261.638 143.582 258.985 153.838 261.615 158.694L276.011 196.563C277.394 199.762 281.747 201.419 286.44 201.419L288.707 201.169C289.773 201.01 294.284 193.296 294.488 188.849C294.466 187.805 289.41 186.489 289.41 186.489Z" fill="#57C5C7"/>
<path d="M285.374 102.944C285.518 101.433 285.252 99.9112 284.606 98.538C283.96 97.1647 282.957 95.9907 281.702 95.1389L283.651 93.3463C264.403 84.5426 257.942 96.9767 256.627 105.009C256.106 107.925 255.402 110.804 254.519 113.631C252.562 114.586 250.889 116.037 249.668 117.841C248.446 119.644 247.719 121.737 247.558 123.91C247.458 125.178 247.542 126.455 247.808 127.699C244.588 129.605 242.185 135.572 241.8 139.861C241.188 146.668 250.234 152.363 256.468 153.044C261.479 153.588 265.945 148.029 267.804 143.219C271.839 143.582 271.069 140.814 271.477 136.412C271.581 135.214 271.433 134.007 271.043 132.87C270.652 131.733 270.028 130.69 269.21 129.809C269.59 128.926 269.879 128.006 270.071 127.064C270.931 125.828 271.455 124.389 271.59 122.889C271.624 122.496 271.624 122.101 271.59 121.709C273.029 120.56 274.042 118.963 274.469 117.171C278.187 116.944 278.097 114.63 278.482 110.364C278.482 110.228 281.724 109.275 281.724 109.161C282.764 108.47 283.633 107.551 284.265 106.474C284.898 105.397 285.277 104.19 285.374 102.944Z" fill="#132233"/>
<path d="M300.678 409.26L290.589 407.285H290.294L282.563 406.786L269.912 403.383L269.255 408.874V411.551L302.401 412.277V411.37C302.38 410.879 302.202 410.407 301.891 410.027C301.58 409.646 301.154 409.377 300.678 409.26Z" fill="#16242D"/>
<path opacity="0.4" d="M364.634 48.9876H387.668L382.476 25.2085L363.613 26.1388L364.634 48.9876Z" fill="#8BA4B7"/>
<path d="M383.813 48.9876H361.051V25.2085H382.476L383.813 48.9876Z" fill="#F68B3C"/>
<path d="M368.646 33.7856C367.675 33.7647 366.705 33.6814 365.745 33.536L365.881 32.515C367.652 32.9018 369.494 32.8315 371.231 32.3108L372.092 31.8796C372.719 31.5197 373.401 31.2667 374.11 31.1309C375.162 31.0404 376.209 31.3571 377.035 32.0158L376.423 32.8553C375.79 32.3297 374.974 32.0768 374.156 32.1519C373.572 32.2815 373.014 32.5037 372.501 32.8099L371.548 33.2637C370.622 33.6186 369.638 33.7957 368.646 33.7856Z" fill="white"/>
<path d="M370.347 38.0737C368.85 38.0737 367.354 38.0737 365.812 37.8922V36.8712C368.293 37.1094 370.791 37.1094 373.271 36.8712C374.38 36.7313 375.478 36.5191 376.559 36.2358L376.808 37.2569C375.687 37.5288 374.551 37.7409 373.407 37.8922C372.392 38.0134 371.37 38.0741 370.347 38.0737Z" fill="white"/>
<path d="M374.881 43.7688L373.249 43.6326C370.991 43.3824 368.719 43.2687 366.447 43.2923V42.2712C368.757 42.2391 371.066 42.3452 373.362 42.5889L374.995 42.7477L374.881 43.7688Z" fill="white"/>
<path opacity="0.4" d="M345.59 65.1885L341.758 89.5802H366.561L365.268 66.4137L345.59 65.1885Z" fill="#8BA4B7"/>
<path d="M370.279 91.282L346.859 90.3744L345.589 65.1885L368.283 66.5953L370.279 91.282Z" fill="#57C5C7"/>
<path d="M364.021 74.5137C362.27 74.0888 360.472 73.8905 358.671 73.9237C356.357 74.0279 354.046 73.6731 351.869 72.88L352.278 71.9497C354.322 72.6653 356.484 72.9887 358.648 72.9027C360.533 72.8695 362.415 73.0754 364.248 73.5153L364.021 74.5137Z" fill="white"/>
<path d="M361.868 78.9612C360.759 78.3226 359.533 77.9137 358.263 77.7587C357.583 77.7587 356.835 77.6452 356.177 77.6225L349.376 77.4864V76.4653L356.177 76.6015C356.935 76.601 357.692 76.6464 358.444 76.7376C359.847 76.9133 361.202 77.3603 362.435 78.0536L361.868 78.9612Z" fill="white"/>
<path d="M352.89 82.9092C351.915 82.9092 350.94 82.9092 349.988 82.773V81.752C351.913 81.9875 353.863 81.9263 355.769 81.5705L356.585 81.3436L357.243 81.162C358.678 80.7939 360.165 80.6712 361.641 80.799V81.82C360.286 81.7046 358.922 81.8197 357.605 82.1604L356.971 82.3419L356.109 82.5688C355.055 82.8164 353.973 82.9307 352.89 82.9092Z" fill="white"/>
<path opacity="0.4" d="M314.122 65.6875L316.638 89.0128H292.811L294.012 65.6875H314.122Z" fill="#8BA4B7"/>
<path d="M311.537 90.8507H290.135L292.697 65.6875H314.122L311.537 90.8507Z" fill="#E7D893"/>
<path d="M305.824 74.0148C303.055 74.0185 300.297 73.6678 297.617 72.971L297.866 71.9727C301.453 72.9004 305.173 73.1998 308.862 72.8576V73.8786C307.91 73.9694 306.867 74.0148 305.824 74.0148Z" fill="white"/>
<path d="M296.053 78.4169H295.69V77.3958C297.028 77.3958 298.456 77.3958 299.816 77.2143C302.255 76.9077 304.723 76.9077 307.162 77.2143L306.958 78.2354C304.614 77.9027 302.238 77.8646 299.884 78.1219C298.637 78.3261 297.345 78.4169 296.053 78.4169Z" fill="white"/>
<path d="M300.882 83.2496C298.905 83.2532 296.93 83.1548 294.964 82.9546V81.9336C298.016 82.2287 301.085 82.2969 304.146 82.1378V83.1589C303.171 83.2269 302.038 83.2496 300.882 83.2496Z" fill="white"/>
<path d="M303.285 87.9467C302.106 87.9467 301.018 87.6517 299.771 87.4702C297.993 87.0787 296.171 86.9185 294.352 86.9937V85.9727C296.262 85.8802 298.175 86.0404 300.043 86.4492C301.168 86.6652 302.303 86.8243 303.444 86.9257L303.285 87.9467Z" fill="white"/>
<path opacity="0.4" d="M416.143 65.6875L418.682 89.0128H394.832L396.034 65.6875H416.143Z" fill="#8BA4B7"/>
<path d="M413.581 90.8507H392.157L394.718 65.6875H416.143L413.581 90.8507Z" fill="#058CBD"/>
<path d="M407.845 74.0148C405.084 74.0201 402.333 73.6693 399.661 72.971L399.91 71.9727C403.497 72.9004 407.217 73.1998 410.906 72.8576V73.8786C409.954 73.9694 408.888 74.0148 407.845 74.0148Z" fill="white"/>
<path d="M398.074 78.4169H397.711V77.3958C399.026 77.3958 400.454 77.3958 401.815 77.2143C404.254 76.9077 406.721 76.9077 409.16 77.2143L408.979 78.2354C406.627 77.9025 404.244 77.8644 401.883 78.1219C400.659 78.3261 399.366 78.4169 398.074 78.4169Z" fill="white"/>
<path d="M402.926 83.2496C400.949 83.2538 398.974 83.1553 397.008 82.9546V81.9336C400.067 82.2289 403.144 82.2971 406.213 82.1378V83.1589C405.215 83.2269 404.059 83.2496 402.926 83.2496Z" fill="white"/>
<path d="M405.306 87.9463C404.127 87.9463 403.039 87.6513 401.815 87.4698C400.029 87.079 398.2 86.9189 396.374 86.9933V85.9723C398.276 85.8796 400.181 86.0398 402.041 86.4487C403.175 86.653 404.309 86.8345 405.465 86.9252L405.306 87.9463Z" fill="white"/>
<path d="M386.625 226.401L382.476 230.735L381.229 232.005L377.579 233.412L372.795 236.884C372.795 236.884 373.861 237.859 374.314 237.905C375.122 237.793 375.895 237.506 376.581 237.065L374.314 239.947L370.982 244.167C370.901 244.27 370.845 244.389 370.817 244.516C370.789 244.644 370.791 244.775 370.821 244.902C370.852 245.029 370.911 245.147 370.994 245.247C371.076 245.348 371.181 245.429 371.299 245.483L377.987 247.752C378.264 247.841 378.559 247.859 378.844 247.803C379.129 247.748 379.396 247.621 379.619 247.434L384.607 242.556L386.874 238.018L388.801 235.409L391.885 230.689L386.625 226.401Z" fill="#FAC0B3"/>
<path d="M393.517 138.409L387.804 132.714L383.269 128.176L378.735 124.432L374.564 121.051C374.463 120.97 374.345 120.913 374.219 120.883C374.093 120.854 373.961 120.853 373.835 120.882C373.709 120.91 373.59 120.967 373.489 121.047C373.387 121.127 373.305 121.23 373.249 121.346L370.982 127.994C370.891 128.27 370.871 128.563 370.923 128.849C370.974 129.134 371.096 129.402 371.276 129.628L376.083 134.711L380.617 136.98L383.201 138.954L388.506 143.945L393.517 138.409Z" fill="#FAC0B3"/>
<path d="M383.814 141.812L389.935 133.667L420.496 158.83C421.186 159.306 421.953 159.659 422.763 159.873C422.763 159.873 450.558 135.867 462.483 133.939C466.337 133.303 469.285 138.477 468.31 142.153L468.083 143.06C467.086 146.849 462.937 150.616 459.876 153.066C447.951 162.642 437.635 175.166 427.479 177.141C424.207 177.817 420.81 177.518 417.707 176.278C407.528 171.513 383.814 141.812 383.814 141.812Z" fill="#E7D893"/>
<path d="M450.264 127.041L435.641 128.697L433.532 121.981L430.812 119.236L431.854 112.928L430.585 101.833H450.264V127.041Z" fill="#FAC0B3"/>
<path d="M450.263 123.434H441.489V137.728H450.263V123.434Z" fill="#FAC0B3"/>
<path d="M428.771 104.374L435.051 103.943L434.303 106.439L433.849 108.095L433.872 109.275L434.824 110.046L434.801 112.315L436.071 112.769L436.729 110.591L438.588 111.589L440.424 119.735L445.344 122.163L450.263 121.891L450.399 120.756L452.644 112.247L453.709 101.833L446.591 95.3887L439.562 94.2315L430.358 91.3271L423.466 95.6609L424.259 102.604L428.771 104.374Z" fill="#132233"/>
<path d="M420.473 414.365C419.453 415.454 414.533 414.819 414.533 414.819L393.449 413.276V412.323C393.455 411.833 393.62 411.358 393.918 410.969C394.216 410.581 394.632 410.299 395.104 410.167L403.515 408.692L409.863 404.154L411.133 400.728L419.612 400.978L419.725 405.334L420.473 411.665C420.473 411.665 420.927 413.866 420.473 414.365Z" fill="#16242D"/>
<path d="M471.121 411.869C470.101 412.981 465.181 412.323 465.181 412.323L444.097 410.802V409.849C444.103 409.36 444.268 408.885 444.566 408.496C444.864 408.108 445.28 407.826 445.752 407.694L454.163 406.196L460.511 401.658L461.781 398.232L470.26 398.504V402.838L471.008 409.169C471.008 409.169 471.688 411.37 471.121 411.869Z" fill="#16242D"/>
<path d="M420.7 402.498H408.616L409.931 319.838L413.581 237.587H452.077L431.423 323.877L420.7 402.498Z" fill="#395C7F"/>
<path d="M469.988 400.478L461.463 400.093C460.466 400.093 459.763 400.274 459.672 399.298L452.077 316.094L442.85 239.334H476.018L477.174 255.716L473.048 317.773L473.728 333.815L472.096 399.344C472.073 400.501 472.073 400.501 469.988 400.478Z" fill="#395C7F"/>
<path d="M477.718 241.444L410.475 242.783C410.475 242.783 415.803 195.134 416.823 179.251C417.345 171.446 417.775 153.112 418.025 141.994C418.08 139.514 419.055 137.144 420.761 135.344C422.467 133.545 424.781 132.446 427.252 132.26L439.744 131.307H450.649L461.327 132.169C464.02 132.374 466.538 133.584 468.381 135.559C470.225 137.535 471.259 140.131 471.28 142.834C471.416 154.179 471.665 172.331 472.119 180.159C473.025 195.611 477.718 241.444 477.718 241.444Z" fill="#E7D893"/>
<path d="M390.434 234.66L382.159 229.283L407.732 190.347C408.18 189.652 408.503 188.884 408.684 188.078L418.274 139.181C418.485 138.272 418.873 137.413 419.416 136.654C419.958 135.895 420.645 135.251 421.437 134.758C422.228 134.265 423.109 133.933 424.029 133.781C424.949 133.628 425.89 133.659 426.799 133.871L427.705 134.075C433.079 134.892 436.003 142.335 435.028 147.122C435.028 147.122 428.227 181.906 425.62 193.705C424.547 196.302 423.32 198.832 421.947 201.283C413.672 212.742 390.434 234.66 390.434 234.66Z" fill="#ECE0A9"/>
<path d="M378.69 138.182L355.747 135.3L361.89 108.685L384.834 111.589L378.69 138.182Z" fill="#F68B3C"/>
<path d="M374.813 119.395C371.85 119.002 368.949 118.239 366.175 117.126L366.583 116.082C370.297 117.563 374.241 118.384 378.236 118.51V119.622C377.057 119.607 375.916 119.531 374.813 119.395Z" fill="white"/>
<path d="M363.772 122.776H363.364L363.523 121.664C364.928 121.868 366.493 121.959 368.057 122.05C370.709 122.08 373.345 122.454 375.901 123.162L375.561 124.228C373.1 123.555 370.563 123.196 368.012 123.162C366.538 123.025 365.132 122.957 363.772 122.776Z" fill="white"/>
<path d="M368.284 128.607C366.175 128.334 364.067 127.971 362.004 127.495L362.231 126.406C365.459 127.149 368.742 127.635 372.047 127.858V128.97C370.755 128.879 369.531 128.766 368.284 128.607Z" fill="white"/>
<path d="M370.233 133.871C368.985 133.603 367.752 133.27 366.538 132.873C364.679 132.218 362.744 131.807 360.78 131.647V130.536C362.837 130.694 364.864 131.121 366.81 131.806C367.985 132.198 369.181 132.523 370.392 132.782L370.233 133.871Z" fill="white"/>
<path d="M386.058 131.103L384.924 126.724L382 121.573C382 121.573 380.912 122.526 380.821 122.98C380.994 124.385 381.425 125.747 382.09 126.996L382.295 131.534L384.562 132.555L386.058 131.103Z" fill="#FAC0B3"/>
</g>
<path d="M66.0191 287.293L64.9309 287.452C63.1172 274.768 64.1601 235.265 64.1828 234.947L64.6589 235.174C64.6589 235.56 64.2281 274.7 66.0191 287.293Z" fill="#419495"/>
<path d="M64.3414 235.514C62.247 234.257 60.6466 232.319 59.8071 230.023C59.0816 226.824 56.5651 219.246 57.0639 215.139C57.5626 211.032 56.8825 202.795 58.3335 196.987C59.7844 191.178 58.3335 186.617 60.3286 178.971C62.3236 171.324 67.266 146.479 70.6667 141.578C74.0674 136.677 77.6041 133.886 78.443 131.549C78.443 131.549 76.7653 134.385 78.647 140.965C80.6253 149.239 81.502 157.738 81.2542 166.242C81.0049 173.934 80.5514 193.946 80.1207 200.958C79.6899 207.969 76.8333 222.808 73.7727 226.688C70.7121 230.568 69.1024 230.704 67.7874 232.406C66.4725 234.108 65.9737 235.083 64.3414 235.514Z" fill="#37A3CA"/>
<path d="M64.1828 234.97C64.1828 234.97 67.6515 206.131 68.8984 198.053C70.1453 189.976 73.8861 164.018 74.4302 156.054C74.9744 148.09 74.5663 143.824 75.6998 139.559C75.2099 143.266 75.0128 147.006 75.1104 150.745C75.1104 157.983 71.3016 185.324 71.3016 185.324L67.5155 216.047L64.6589 235.242L64.1828 234.97Z" fill="#5FB5D5"/>
<path d="M138.296 158.074C135.47 157.665 132.588 157.929 129.884 158.845C126.665 160.365 107.712 176.248 98.9834 186.413C90.2549 196.579 72.5485 223.625 71.1882 227.618C69.8279 231.612 67.6288 234.425 67.6742 240.03C67.7195 245.634 67.0847 248.448 70.4854 251.012C70.4854 251.012 72.1631 251.012 73.3874 248.13C74.6116 245.249 74.793 246.86 77.0601 241.618C79.3273 236.377 83.7255 232.179 87.0809 225.894C90.4362 219.609 90.2322 224.101 95.1066 214.98C99.9809 205.859 96.6255 215.638 106.238 202.637C115.851 189.635 131.177 173.14 133.285 169.623C134.913 166.983 136.178 164.136 137.049 161.159C137.153 160.031 137.587 158.958 138.296 158.074Z" fill="#058CBD"/>
<path d="M131.947 163.133C131.947 163.133 104.742 198.303 95.2198 211.1C87.974 221.059 81.2395 231.382 75.0423 242.026L70.2813 250.717L70.7801 250.83C70.7801 250.83 79.6899 235.469 84.995 227.459C90.3002 219.45 99.7995 205.79 104.946 199.233C110.092 192.676 131.947 163.133 131.947 163.133Z" fill="#37A3CA"/>
<path d="M68.8983 298.23L68.0141 298.502C65.4749 283.118 70.2812 251.148 70.2812 250.853H70.78C70.712 251.125 66.3817 283.005 68.8983 298.23Z" fill="#419495"/>
<path d="M58.2428 281.893H59.059C61.1901 269.005 57.1319 242.14 57.0866 241.868H56.6785C56.6785 242.344 60.3512 269.005 58.2428 281.893Z" fill="#419495"/>
<path d="M0 164.177C2.36739 163.828 4.78387 164.045 7.0508 164.813C9.7487 166.106 25.664 179.448 33.0095 187.979C40.3551 196.51 55.1595 219.246 56.3157 222.581C57.472 225.917 59.3084 228.413 59.263 233.019C59.2177 237.625 59.7618 240.075 56.9959 242.231C56.9959 242.231 56.2251 243.751 53.9126 242.707C50.6479 241.232 49.3783 242.14 47.5419 237.738C45.7055 233.336 44.912 233.835 42.1008 228.662C39.2895 223.489 39.4482 223.602 35.2994 215.956C31.1505 208.309 35.0046 212.598 26.9109 201.684C18.8173 190.77 5.9399 176.952 4.23955 173.957C2.87098 171.741 1.80359 169.353 1.06556 166.855C0.99503 165.873 0.622814 164.938 0 164.177H0Z" fill="#058CBD"/>
<path d="M5.30521 168.42C5.30521 168.42 27.9766 197.917 36.1383 208.717C42.2313 217.074 47.8915 225.737 53.0965 234.675L57.0867 241.981H56.7013C56.7013 241.981 49.197 229.07 44.7534 222.331C40.3098 215.592 32.3068 204.179 27.9993 198.643C23.6917 193.107 5.30521 168.42 5.30521 168.42Z" fill="#37A3CA"/>
<path d="M67.0846 329.701H59.7617C55.6355 329.701 52.2121 327.205 51.8721 323.915L46.3629 269.98H80.4834L74.9742 323.915C74.6568 327.205 71.2108 329.701 67.0846 329.701Z" fill="#57C5C7"/>
<g opacity="0.6">
<path opacity="0.6" d="M59.7617 329.701H67.0845C71.2107 329.701 74.6568 327.205 74.9742 323.915L80.4833 269.98H73.6819C73.4098 278.126 72.2083 305.558 68.6262 312.797C65.7242 318.651 58.5147 322.167 51.94 323.892C52.1441 327.205 55.6355 329.701 59.7617 329.701Z" fill="#DFECF8"/>
</g>
<path opacity="0.2" d="M63 415C75.7026 415 86 413.657 86 412C86 410.343 75.7026 409 63 409C50.2975 409 40 410.343 40 412C40 413.657 50.2975 415 63 415Z" fill="#005386"/>
<defs>
<clipPath id="clip0">
<rect width="544" height="415" fill="white" transform="translate(50)"/>
</clipPath>
</defs>
</svg>
