<svg width="655" height="560" viewBox="0 0 655 560" fill="none" xmlns="http://www.w3.org/2000/svg">
<path d="M206.044 87H175.957C172.115 87 169 90.1145 169 93.9565V124.043C169 127.885 172.115 131 175.957 131H206.044C209.886 131 213.001 127.885 213.001 124.043V93.9565C213.001 90.1145 209.886 87 206.044 87Z" fill="#FBB157"/>
<path d="M177.762 109.012L186.513 104.504V105.806L179.134 109.495V109.533L186.513 113.222V114.524L177.762 110.03V109.012Z" fill="white"/>
<path d="M187.746 115.292L193.007 101.619H194.29L189.009 115.292H187.746Z" fill="white"/>
<path d="M204.233 110.05L195.481 114.538V113.237L202.912 109.547V109.509L195.481 105.82V104.518L204.233 109.008V110.05Z" fill="white"/>
<path d="M258.866 221.175C258.866 226.391 257.32 231.489 254.422 235.826C251.524 240.163 247.405 243.543 242.586 245.539C237.768 247.535 232.465 248.057 227.35 247.039C222.234 246.021 217.535 243.509 213.847 239.821C210.159 236.133 207.648 231.434 206.63 226.318C205.613 221.202 206.136 215.9 208.132 211.081C210.129 206.263 213.509 202.145 217.846 199.247C222.183 196.35 227.282 194.804 232.498 194.804C235.961 194.804 239.39 195.486 242.589 196.812C245.789 198.137 248.696 200.079 251.144 202.528C253.593 204.977 255.535 207.884 256.86 211.084C258.185 214.283 258.867 217.712 258.866 221.175Z" fill="#0083C7"/>
<path d="M229.4 234.505L222.996 228.098L222.161 231.532L226.013 235.386L229.4 234.505Z" fill="white"/>
<path d="M226.013 235.387L222.161 231.533L221.355 234.847C221.309 235.04 221.313 235.243 221.367 235.434C221.422 235.626 221.525 235.8 221.667 235.939C221.808 236.079 221.984 236.18 222.176 236.231C222.368 236.283 222.571 236.284 222.764 236.234L226.013 235.387Z" fill="white"/>
<path d="M227.812 232.914L227.194 232.296L231.218 228.273L229.228 226.283L225.202 230.307L229.4 234.505L233.424 230.481L231.836 228.891L227.812 232.914Z" fill="white"/>
<path d="M227.018 224.067L222.995 228.09L224.582 229.677L228.606 225.654L227.018 224.067Z" fill="white"/>
<path d="M238.754 212.341L234.821 216.274L241.226 222.68L245.158 218.746L238.754 212.341ZM236.407 217.862L240.141 214.128L240.761 214.746L237.025 218.482L236.407 217.862ZM239.635 221.092L239.014 220.472L242.751 216.735L243.372 217.356L239.635 221.092Z" fill="white"/>
<path d="M229.228 226.283L228.607 225.663L229.228 226.283Z" fill="white"/>
<path d="M224.583 229.687L225.202 230.307L224.583 229.687Z" fill="white"/>
<path d="M231.836 228.891L231.218 228.273L231.836 228.891Z" fill="white"/>
<path d="M231.778 213.613C231.779 212.588 231.501 211.582 230.973 210.704C230.445 209.826 229.687 209.109 228.782 208.63L223.937 206.077L223.094 206.922L227.559 212.137L222.907 216.791L217.676 212.324L216.833 213.169L219.384 218.012C219.859 218.919 220.572 219.68 221.447 220.212C222.321 220.745 223.325 221.029 224.349 221.034H226.448L237.4 231.986C237.5 232.888 237.853 233.743 238.419 234.453C238.984 235.163 239.738 235.7 240.594 236C241.451 236.3 242.374 236.353 243.259 236.151C244.144 235.95 244.954 235.503 245.596 234.861C246.238 234.22 246.686 233.41 246.888 232.525C247.089 231.64 247.037 230.716 246.737 229.86C246.437 229.003 245.902 228.249 245.192 227.684C244.482 227.118 243.627 226.765 242.725 226.664L231.773 215.712L231.778 213.613ZM245.275 232.281L243.022 234.531L239.945 233.707L239.121 230.63L241.374 228.38L244.451 229.204L245.275 232.281Z" fill="white"/>
<path d="M245.854 218.023L239.45 211.616L240.438 210.656C241.287 209.807 242.439 209.33 243.64 209.33C244.841 209.33 245.993 209.807 246.842 210.656C247.264 211.076 247.598 211.575 247.825 212.125C248.053 212.674 248.171 213.263 248.171 213.858C248.171 214.453 248.053 215.042 247.825 215.592C247.598 216.141 247.264 216.64 246.842 217.06L245.854 218.023Z" fill="white"/>
<path d="M84.2924 153.935H85.2468C85.5515 152.918 85.9587 151.934 86.4619 150.999L85.7918 150.326C85.3637 149.899 85.024 149.392 84.792 148.833C84.56 148.275 84.4403 147.676 84.4397 147.071C84.4391 146.467 84.5576 145.868 84.7885 145.309C85.0193 144.75 85.358 144.242 85.7852 143.814C86.2124 143.386 86.7198 143.046 87.2782 142.814C87.8367 142.582 88.4354 142.462 89.0402 142.462C89.6449 142.461 90.2439 142.58 90.8028 142.81C91.3618 143.041 91.8698 143.38 92.2979 143.807L92.9706 144.48C93.9058 143.977 94.8895 143.57 95.9068 143.265V142.318C95.8922 141.705 96.0004 141.095 96.2249 140.525C96.4495 139.954 96.7859 139.434 97.2143 138.995C97.6428 138.556 98.1547 138.208 98.7199 137.97C99.2851 137.732 99.8921 137.609 100.505 137.609C101.119 137.609 101.726 137.732 102.291 137.97C102.856 138.208 103.368 138.556 103.797 138.995C104.225 139.434 104.561 139.954 104.786 140.525C105.01 141.095 105.119 141.705 105.104 142.318V143.27C106.122 143.575 107.107 143.982 108.043 144.485L108.716 143.812C109.58 142.95 110.752 142.466 111.973 142.468C113.194 142.469 114.365 142.956 115.227 143.82C116.089 144.685 116.573 145.856 116.572 147.077C116.57 148.299 116.084 149.469 115.219 150.331L114.546 151.004C115.05 151.939 115.457 152.923 115.761 153.94H116.716C117.936 153.94 119.106 154.425 119.969 155.288C120.831 156.15 121.316 157.32 121.316 158.54C121.316 159.76 120.831 160.93 119.969 161.793C119.106 162.655 117.936 163.14 116.716 163.14H115.761C115.456 164.156 115.049 165.139 114.546 166.074L115.219 166.749C115.663 167.172 116.017 167.68 116.261 168.242C116.506 168.804 116.635 169.41 116.642 170.023C116.65 170.636 116.534 171.244 116.303 171.812C116.071 172.38 115.729 172.895 115.296 173.329C114.862 173.762 114.346 174.105 113.778 174.336C113.211 174.567 112.602 174.683 111.989 174.676C111.376 174.669 110.771 174.539 110.209 174.295C109.647 174.05 109.139 173.696 108.716 173.252L108.04 172.567C107.104 173.069 106.119 173.476 105.101 173.782V174.734C105.116 175.347 105.008 175.956 104.783 176.527C104.559 177.098 104.222 177.618 103.794 178.057C103.365 178.495 102.854 178.844 102.288 179.082C101.723 179.32 101.116 179.443 100.503 179.443C99.8895 179.443 99.2824 179.32 98.7173 179.082C98.1521 178.844 97.6402 178.495 97.2117 178.057C96.7833 177.618 96.4469 177.098 96.2223 176.527C95.9978 175.956 95.8896 175.347 95.9042 174.734V173.782C94.8869 173.477 93.9032 173.07 92.968 172.567L92.2952 173.239C91.4223 174.043 90.2724 174.479 89.0859 174.455C87.8994 174.431 86.7681 173.949 85.9285 173.11C85.0888 172.272 84.6058 171.141 84.5803 169.955C84.5548 168.768 84.9889 167.618 85.7918 166.744L86.4645 166.068C85.9617 165.134 85.5546 164.151 85.2494 163.135H84.295C83.075 163.135 81.905 162.65 81.0424 161.788C80.1797 160.925 79.6951 159.755 79.6951 158.535C79.6951 157.315 80.1797 156.145 81.0424 155.282C81.905 154.42 83.075 153.935 84.295 153.935H84.2924ZM100.502 167.756C102.325 167.756 104.107 167.215 105.623 166.202C107.139 165.189 108.321 163.749 109.018 162.065C109.716 160.38 109.898 158.527 109.542 156.738C109.186 154.95 108.308 153.308 107.019 152.019C105.729 150.73 104.087 149.852 102.298 149.496C100.51 149.141 98.6565 149.324 96.9721 150.022C95.2878 150.72 93.8483 151.902 92.8357 153.418C91.8231 154.935 91.283 156.717 91.2835 158.54C91.2855 160.984 92.2576 163.326 93.9861 165.053C95.7146 166.78 98.0581 167.75 100.502 167.75V167.756Z" fill="#485E88"/>
<path d="M437.003 57.5474C451.415 54.589 460.7 40.5075 457.742 26.0955C454.784 11.6835 440.702 2.39842 426.29 5.35678C411.878 8.31515 402.592 22.3966 405.551 36.8087C408.509 51.2207 422.591 60.5057 437.003 57.5474Z" fill="white"/>
<path d="M440.066 35.6323L436.269 39.4264L438.817 40.433L441.101 38.1513L440.066 35.6323Z" fill="#FECE71"/>
<path d="M441.101 38.1514L438.817 40.433L441.276 41.4057C441.902 41.6534 442.35 41.1944 442.095 40.566L441.101 38.1514Z" fill="#485E88"/>
<path d="M424.488 20.0722L420.688 23.8715L420.206 23.3735C419.317 22.4817 419.445 20.9093 420.493 19.861C421.536 18.818 423.116 18.6824 424.005 19.5742L424.488 20.0722Z" fill="#F2706D"/>
<path d="M436.859 32.4272L425.088 20.6538L421.293 24.4505L433.064 36.2213L436.272 39.426L437.213 38.4847L433.862 35.1365L422.389 23.663L422.756 23.2953L434.23 34.7688L437.576 38.117L440.063 35.6319L436.856 32.4272H436.859ZM439.125 36.5707L438.757 36.9384L435.406 33.5902L423.932 22.1167L424.3 21.749L435.907 33.3555L439.125 36.5707Z" fill="#38B9C6"/>
<path d="M448.087 43.2495H418.608V44.6211H448.087V43.2495Z" fill="#485E88"/>
<path d="M417.192 43.2495H415.207V44.6211H417.192V43.2495Z" fill="#485E88"/>
<path opacity="0.2" d="M256.177 555.007C293.979 555.007 324.623 554.109 324.623 553.001C324.623 551.894 293.979 550.996 256.177 550.996C218.376 550.996 187.731 551.894 187.731 553.001C187.731 554.109 218.376 555.007 256.177 555.007Z" fill="#1D283D"/>
<path opacity="0.2" d="M428.478 559.014C456.663 559.014 479.512 558.117 479.512 557.009C479.512 555.902 456.663 555.004 428.478 555.004C400.292 555.004 377.443 555.902 377.443 557.009C377.443 558.117 400.292 559.014 428.478 559.014Z" fill="#1D283D"/>
<path opacity="0.2" d="M601.7 559.356C616.16 559.356 627.883 558.309 627.883 557.017C627.883 555.726 616.16 554.679 601.7 554.679C587.24 554.679 575.518 555.726 575.518 557.017C575.518 558.309 587.24 559.356 601.7 559.356Z" fill="#1D283D"/>
<path opacity="0.2" d="M289.383 553.004C374.632 553.004 443.74 552.106 443.74 550.998C443.74 549.891 374.632 548.993 289.383 548.993C204.134 548.993 135.026 549.891 135.026 550.998C135.026 552.106 204.134 553.004 289.383 553.004Z" fill="#1D283D"/>
<path d="M441.91 404.245H146.479V410.54H441.91V404.245Z" fill="#E3F1FB"/>
<path d="M158.747 410.54H152.773V550.203H158.747V410.54Z" fill="#E3F1FB"/>
<path d="M433.372 410.54H427.398V550.203H433.372V410.54Z" fill="#E3F1FB"/>
<path d="M301.673 402.602C300.427 402.529 298.372 402.38 297.394 402.138C293.339 401.128 289.832 396.458 289.832 392.278V371.926H261.865V392.278C261.865 396.45 258.355 401.128 254.303 402.138C253.325 402.38 251.272 402.529 250.026 402.602C249.745 402.614 249.48 402.735 249.286 402.938C249.092 403.141 248.983 403.411 248.983 403.692V404.706H302.7V403.692C302.7 403.413 302.594 403.146 302.403 402.943C302.212 402.74 301.951 402.618 301.673 402.602Z" fill="#E7F6F8"/>
<g opacity="0.1">
<path opacity="0.1" d="M261.865 371.926V386.98L289.827 391.861V371.926H261.865Z" fill="#404041"/>
</g>
<path d="M333.856 297.46H217.837C216.149 297.46 214.781 298.829 214.781 300.517V382.852C214.781 384.54 216.149 385.908 217.837 385.908H333.856C335.544 385.908 336.912 384.54 336.912 382.852V300.517C336.912 298.829 335.544 297.46 333.856 297.46Z" fill="white"/>
<path d="M332.967 301.403H218.723V371.926H332.967V301.403Z" fill="#99CDE9"/>
<path d="M273.402 361.35L273.314 361.355V361.35H273.402Z" fill="#2A2A3B"/>
<path d="M273.402 297.458L273.314 297.461V297.458H273.402Z" fill="#2A2A3B"/>
<path d="M339.489 402.159H246.331V404.026H339.489V402.159Z" fill="white"/>
<path d="M408.068 555.719H408.328L408.386 557.022H414.568L414.402 555.312H414.198V555.294L414.18 549.009H407.76L407.624 549.836L404.662 552.011L395.274 554.691C395.274 554.691 394.534 555.015 394.55 555.419L394.576 556.159L394.591 556.608C394.591 556.608 394.706 556.803 395.47 557.025H406.224L406.873 556.159L407.507 555.763L408.068 555.719Z" fill="#485E88"/>
<path d="M463 555.719H463.261L463.318 557.022H469.504L469.334 555.312H469.128V555.294L468.727 549.009H462.307L462.168 549.836L459.589 552.011L450.202 554.691C450.202 554.691 449.464 555.015 449.477 555.419L449.503 556.159L449.519 556.608C449.519 556.608 449.633 556.803 450.4 557.025H461.151L461.803 556.159L462.434 555.763L463 555.719Z" fill="#485E88"/>
<path d="M435.524 559.99L435.231 560V559.99H435.524Z" fill="#2A2A3B"/>
<path d="M460.901 549.734H469.681L470.294 472.9L472.844 396.041H449.399L456.93 472.9L460.901 549.734Z" fill="#38B9C6"/>
<path d="M406.435 549.358L415.205 549.76L431.841 478.843L452.773 396.148L429.901 396.041L426.204 425.082L418.49 478.233L406.435 549.358Z" fill="#38B9C6"/>
<path d="M384.87 351.354L377.769 353.459L372.958 352.395L368.958 352.669L365.406 353.524L367.477 354.669L369.357 354.525L370.776 354.838L370.768 355.315L366.822 357.107L359.398 358.233L360.316 359.428L362.389 360.52L364.749 362.051L371.268 361.23L378.559 358.917L386.844 357.229L384.87 351.354Z" fill="#F9C0B2"/>
<path d="M414.456 353.362L413.757 352.942C412.649 352.269 411.842 351.197 411.502 349.945C411.163 348.694 411.316 347.361 411.932 346.22L438.097 309.664C440.585 305.87 444.916 304.576 448.59 306.795L449.339 307.317C453.013 309.536 453.334 313.862 450.932 317.421L421.257 351.865C420.532 352.939 419.421 353.693 418.156 353.972C416.89 354.25 415.566 354.032 414.456 353.362Z" fill="#006295"/>
<path d="M383.264 359.362L379.791 351.873L416.076 343.317C420.83 342.473 422.595 347.145 421.98 349.87C421.375 352.598 419.894 354.006 416.105 354.496L383.264 359.362Z" fill="#006295"/>
<path d="M436.825 314.772L432.097 315.664C431.755 315.729 431.403 315.725 431.061 315.654C430.72 315.582 430.396 315.444 430.108 315.248C429.82 315.051 429.574 314.8 429.383 314.508C429.193 314.216 429.061 313.89 428.997 313.547L426.222 298.829L436.165 296.955L438.942 311.672C439.007 312.015 439.003 312.367 438.932 312.708C438.86 313.049 438.722 313.373 438.526 313.661C438.329 313.949 438.078 314.195 437.786 314.386C437.494 314.577 437.167 314.708 436.825 314.772Z" fill="#F9C0B2"/>
<path d="M436.903 300.921L422.511 304.895L419.108 299.951L416.31 298.04L418.021 293.13L417.327 283.007L432.845 279.33L436.903 300.921Z" fill="#F9C0B2"/>
<path d="M435.526 293.596C435.526 293.596 429.649 291.278 429.195 289.409C428.741 287.539 427.143 282.89 425.283 284.83C424.013 286.134 422.582 285.834 420.29 285.169C417.998 284.504 416.673 285.338 414.934 282.764C413.194 280.191 413.93 278.277 414.806 277.38C415.244 276.929 416.733 276.052 420.543 276.783C424.352 277.513 427.502 274.973 429.839 275.609C433.529 276.611 437.328 280.903 437.735 284.791C438.142 288.679 435.526 293.596 435.526 293.596Z" fill="#1A2C3D"/>
<path d="M472.636 397.674L429.565 399.604L427.268 395.692L416.178 338.992L414.824 329.605C413.781 318.022 416.11 310.968 422.452 309.683L439.435 305.377C451.17 303.62 457.428 311.923 459.684 319.198L464.377 336.361L474.344 386.863L472.636 397.674Z" fill="#0083C7"/>
<path d="M385.83 404.026L389.629 404.245L394.779 402.02L396.604 402.357L395.4 404.245H398.096L399.994 400.821L400.143 397.958L404.109 391.814L398.351 390.072L393.945 396.216L390.046 399.866L381.756 403.355V404.245L385.83 404.026Z" fill="#F9C0B2"/>
<path d="M415.951 367.449L415.134 367.42C413.838 367.376 412.608 366.835 411.699 365.909C410.79 364.984 410.272 363.744 410.25 362.447L415.27 317.766C415.591 313.239 418.741 309.998 423.033 310.144L423.938 310.23C428.23 310.376 430.618 313.998 430.259 318.274L421.148 362.82C421.039 364.111 420.44 365.31 419.473 366.172C418.506 367.033 417.245 367.49 415.951 367.449Z" fill="#0083C7"/>
<path d="M402.745 396.041L395.3 393.264L410.792 359.957C413.087 355.707 417.833 357.237 419.596 359.402C421.359 361.569 421.536 363.613 419.57 366.88L402.745 396.041Z" fill="#0083C7"/>
<path d="M305.767 310.433H226.648V363.245H305.767V310.433Z" fill="#F7FCFD"/>
<path d="M259.048 317.356H237.514V317.883H259.048V317.356Z" fill="#58595B"/>
<path d="M250.279 318.908H237.932V319.435H250.279V318.908Z" fill="#0083C7"/>
<path d="M240.795 322.397H237.751V322.921H240.795V322.397Z" fill="#F2706D"/>
<path d="M249.95 322.397H241.958V322.921H249.95V322.397Z" fill="#0083C7"/>
<path d="M244.104 324.052H240.943V324.579H244.104V324.052Z" fill="#58595B"/>
<path d="M247.833 324.052H244.761V324.579H247.833V324.052Z" fill="#58595B"/>
<path d="M254.96 324.052H249.473V324.579H254.96V324.052Z" fill="#38B9C6"/>
<path d="M246.518 325.709H243.835V326.236H246.518V325.709Z" fill="#F2706D"/>
<path d="M249.684 325.709H247.178V326.236H249.684V325.709Z" fill="#58595B"/>
<path d="M258.571 325.709H250.667V326.236H258.571V325.709Z" fill="#58595B"/>
<path d="M277.419 325.709H265.341V326.236H277.419V325.709Z" fill="#58595B"/>
<path d="M284.217 325.709H278.939V326.236H284.217V325.709Z" fill="#38B9C6"/>
<path d="M245.877 327.362H243.835V327.89H245.877V327.362Z" fill="#F2706D"/>
<path d="M250.219 327.362H247.147V327.89H250.219V327.362Z" fill="#58595B"/>
<path d="M261.969 327.362H250.785V327.89H261.969V327.362Z" fill="#38B9C6"/>
<path d="M263.103 329.018H248.281V329.544H263.103V329.018Z" fill="#0083C7"/>
<path d="M248.278 330.674H243.835V331.201H248.278V330.674Z" fill="#58595B"/>
<path d="M245.684 332.33H243.835V332.856H245.684V332.33Z" fill="#F2706D"/>
<path d="M250.187 332.33H247.295V332.856H250.187V332.33Z" fill="#38B9C6"/>
<path d="M265.072 332.33H252.127V332.856H265.072V332.33Z" fill="#58595B"/>
<path d="M264.058 333.985H247.444V334.509H264.058V333.985Z" fill="#58595B"/>
<path d="M247.772 335.638H243.835V336.165H247.772V335.638Z" fill="#58595B"/>
<path d="M246.907 337.294H243.835V337.821H246.907V337.294Z" fill="#F2706D"/>
<path d="M249.489 337.294H247.773V337.821H249.489V337.294Z" fill="#0083C7"/>
<path d="M259.225 337.294H251.202V337.821H259.225V337.294Z" fill="#58595B"/>
<path d="M252.633 338.95H248.041V339.477H252.633V338.95Z" fill="#38B9C6"/>
<path d="M272.856 338.95H254.513V339.477H272.856V338.95Z" fill="#58595B"/>
<path d="M280.668 338.95H274.585V339.477H280.668V338.95Z" fill="#38B9C6"/>
<path d="M296.15 338.95H282.58V339.477H296.15V338.95Z" fill="#58595B"/>
<path d="M245.058 340.606H238.08V341.133H245.058V340.606Z" fill="#58595B"/>
<path d="M254.333 340.606H248.041V341.133H254.333V340.606Z" fill="#58595B"/>
<path d="M248.63 342.259H243.835V342.786H248.63V342.259Z" fill="#58595B"/>
<path d="M245.507 343.915H241.42V344.441H245.507V343.915Z" fill="#0083C7"/>
<path d="M242.435 345.57H238.08V346.094H242.435V345.57Z" fill="#58595B"/>
<path d="M240.495 348.632H238.08V349.159H240.495V348.632Z" fill="#F2706D"/>
<path d="M245.058 348.632H241.718V349.159H245.058V348.632Z" fill="#58595B"/>
<path d="M255.079 348.632H245.984V349.159H255.079V348.632Z" fill="#58595B"/>
<path d="M247.864 350.246H241.003V350.773H247.864V350.246Z" fill="#58595B"/>
<path d="M254.782 350.246H249.89V350.773H254.782V350.246Z" fill="#0083C7"/>
<path d="M257.705 351.857H244.284V352.384H257.705V351.857Z" fill="#58595B"/>
<path d="M246.998 353.469H244.284V353.997H246.998V353.469Z" fill="#F2706D"/>
<path d="M250.159 353.469H248.221V353.997H250.159V353.469Z" fill="#38B9C6"/>
<path d="M269.487 353.469H251.413V353.997H269.487V353.469Z" fill="#58595B"/>
<path d="M274.944 353.469H271.335V353.997H274.944V353.469Z" fill="#58595B"/>
<path d="M245.061 355.083H241.003V355.609H245.061V355.083Z" fill="#58595B"/>
<path d="M243.658 356.695H238.08V357.222H243.658V356.695Z" fill="#58595B"/>
<path d="M227.454 309.163H304.966C305.179 309.163 305.384 309.248 305.534 309.398C305.685 309.549 305.77 309.753 305.77 309.966V311.703H226.648V309.966C226.648 309.861 226.669 309.756 226.71 309.658C226.75 309.561 226.809 309.472 226.884 309.397C226.959 309.323 227.048 309.264 227.146 309.223C227.244 309.183 227.348 309.163 227.454 309.163Z" fill="#485E88"/>
<path d="M429.398 322.488L420.983 363.566L422.743 372.57L429.398 322.488Z" fill="#006295"/>
<path d="M207.432 463.046H255.241V434.809H207.432V463.046Z" fill="#485E88"/>
<path d="M282.723 549.663H282.386L282.311 551.356H274.227L274.446 549.118H274.707V549.095L275.453 541.011L282.689 541.1L287.187 544.811L299.964 548.32C299.964 548.32 300.932 548.743 300.914 549.272L300.88 550.242L300.859 550.826C300.859 550.826 300.708 551.087 299.709 551.374H285.106L284.256 550.242L283.429 549.721L282.723 549.663Z" fill="#243045"/>
<path d="M284.752 542.211L274.219 543.655L280.783 467.025L268.42 466.105L207.967 463.046V446.19L252.372 447.599L288.418 450.305C289.779 450.408 291.093 450.849 292.241 451.589C293.388 452.33 294.332 453.345 294.987 454.543L297.164 458.524C298.046 460.139 298.358 462.004 298.051 463.818L284.752 542.211Z" fill="#485E88"/>
<path d="M254.662 546.339H254.326L254.25 548.028H246.166L246.388 545.791H246.649V545.768L247.394 537.684L254.631 537.77L259.116 541.465L271.893 544.978C271.893 544.978 272.861 545.397 272.843 545.927L272.809 546.897L272.788 547.481C272.788 547.481 272.637 547.742 271.638 548.028H257.035L256.185 546.897L255.358 546.375L254.662 546.339Z" fill="#243045"/>
<path d="M256.691 538.229L246.159 539.671L255.124 461.988L239.087 463.047L207.435 464.09L208.538 447.594H225.785L266.091 447.333C266.704 447.329 267.307 447.491 267.835 447.802C268.363 448.112 268.797 448.561 269.09 449.098L272.264 454.893C272.644 455.588 272.768 456.394 272.616 457.172L256.691 538.229Z" fill="#485E88"/>
<path d="M232.599 348.465L249.371 347.182C249.815 347.151 250.229 346.951 250.528 346.623C250.827 346.294 250.988 345.863 250.978 345.419L250.824 339.573L254.099 339.654L251.512 333.184L250.662 331.797L250.733 321.948L229.798 321.766L231.957 343.67L232.599 348.465Z" fill="#F9C0B2"/>
<path d="M232.455 360.893L241.799 361.55C242.041 361.567 242.279 361.486 242.462 361.327C242.645 361.168 242.757 360.942 242.774 360.7L243.848 345.234L232.077 344.408L231.034 359.271C231.021 359.471 231.047 359.672 231.111 359.861C231.175 360.051 231.276 360.226 231.408 360.377C231.54 360.528 231.701 360.651 231.88 360.739C232.06 360.828 232.255 360.88 232.455 360.893Z" fill="#F9C0B2"/>
<path d="M251.982 322.447C251.807 321.823 251.499 321.078 251.434 320.864C250.266 317.02 242.354 316.259 242.354 316.259L234.844 316.467C234.424 316.59 231.439 318.405 231.16 318.739L227.509 323.638C227.144 324.079 226.242 328.097 226.294 328.666L228.552 336.773C228.575 337.03 228.645 337.281 228.758 337.513L229.764 340.059C229.856 340.246 230.135 341.292 230.286 341.446L231.692 343.381L236.044 343.19C236.71 343.165 237.357 342.958 237.913 342.59C238.469 342.222 238.913 341.708 239.196 341.104C239.924 339.54 240.693 337.433 240.239 336.304C239.353 334.04 238.876 331.852 240.023 331.127C241.298 330.322 241.637 332.074 242.294 332.217C242.831 332.332 243.027 329.32 243.006 328.961C243 328.677 243.025 328.394 243.082 328.116C243.695 327.709 243.168 327.417 244.764 327.738C247.176 328.225 247.264 328.937 249.499 324.984C250.107 323.907 250.005 322.52 249.726 321.98C249.966 322.096 250.196 322.23 250.417 322.379C250.939 323.385 250.61 324.671 250.751 324.645C251.338 324.528 252.172 323.091 251.982 322.447Z" fill="#364766"/>
<path opacity="0.2" d="M244.205 347.55L244.669 346.825L248.023 345.61C248.475 345.49 248.89 345.257 249.226 344.931C249.562 344.606 249.81 344.199 249.945 343.751L250.883 341.889L250.909 342.802L250.977 345.409C250.988 345.853 250.827 346.284 250.527 346.613C250.228 346.941 249.814 347.141 249.371 347.172L244.205 347.55Z" fill="#005486"/>
<path d="M276.621 396.18L281.182 394.255L286.622 394.92L292.786 399.515L291.263 400.185L290.348 399.549L285.524 401.99L284.958 400.219L284.353 399.953L280.269 401.343L277.117 401.661L271.536 403.716V397.752L276.621 396.18Z" fill="#F9C0B2"/>
<path d="M242.664 418.305L243.504 418.005C244.839 417.526 245.94 416.553 246.577 415.285C247.215 414.018 247.342 412.554 246.93 411.197L228.753 360.805C228.43 359.74 227.895 358.751 227.179 357.899C226.463 357.048 225.581 356.35 224.587 355.85C223.593 355.349 222.508 355.056 221.398 354.988C220.287 354.92 219.174 355.078 218.126 355.454C217.079 355.83 216.119 356.414 215.305 357.172C214.491 357.93 213.839 358.846 213.389 359.864C212.939 360.881 212.701 361.98 212.689 363.092C212.677 364.205 212.891 365.308 213.318 366.335L235.699 415.223C236.244 416.532 237.27 417.581 238.566 418.155C239.863 418.728 241.33 418.782 242.664 418.305Z" fill="#7ACFD1"/>
<path d="M275.716 404.276L274.222 396.435C274.222 396.435 246.524 403.926 237.715 408.756C235.037 410.221 233.999 413.507 235.905 415.893L236.547 416.675C238.453 419.061 241.034 419.118 244.33 417.635L275.716 404.276Z" fill="#364766"/>
<path d="M207.445 442.066H255.244L256.808 437.489L261.158 385.668L261.103 373.647C260.357 360.953 256.72 355.342 249.653 354.971L226.419 353.668C212.679 353.381 209.842 364.359 209.469 371.42L208.687 388.891L205.495 434.926L207.445 442.066Z" fill="#FBB157"/>
<path d="M308.828 395.553H312.654L323.324 401.35L322.579 402.403L317.744 402.166L311.785 404.049L307.027 403.535L299.962 405.911L298.492 400.294L308.828 395.553Z" fill="#F9C0B2"/>
<path d="M264.61 422.422L265.499 422.331C266.909 422.187 268.209 421.507 269.131 420.432C270.053 419.356 270.527 417.968 270.454 416.553L259.502 362.943C259.446 361.832 259.164 360.744 258.674 359.745C258.185 358.746 257.497 357.857 256.653 357.132C255.809 356.407 254.827 355.861 253.766 355.527C252.704 355.193 251.586 355.079 250.479 355.19L249.496 355.349C244.826 355.821 242.482 359.947 243.186 364.588L258.587 417.75C258.8 419.153 259.544 420.42 260.665 421.29C261.786 422.159 263.198 422.565 264.61 422.422Z" fill="#FBB157"/>
<path d="M302.223 406.941L300.963 398.336L260.733 412.61C259.589 413.528 258.858 414.862 258.698 416.319C258.539 417.777 258.965 419.237 259.882 420.381C261.794 422.761 264.443 423.087 267.737 421.596L302.223 406.941Z" fill="#364766"/>
<path d="M230.335 353.886L231.605 351.216L243.381 351.954L244.7 354.692L230.335 353.886Z" fill="#FBB157"/>
<path d="M229.368 539.084H234.393V487.639H229.368V539.084Z" fill="white"/>
<path d="M257.601 544.109V539.084H206.155V544.109H257.601Z" fill="white"/>
<path d="M216.306 548.628C216.306 547.359 215.929 546.119 215.223 545.064C214.518 544.009 213.516 543.186 212.343 542.701C211.17 542.216 209.88 542.089 208.635 542.337C207.391 542.585 206.247 543.196 205.35 544.094C204.453 544.991 203.842 546.135 203.595 547.38C203.347 548.625 203.474 549.915 203.96 551.087C204.446 552.26 205.269 553.262 206.324 553.967C207.379 554.672 208.62 555.048 209.889 555.048C210.732 555.048 211.567 554.882 212.345 554.559C213.124 554.237 213.832 553.764 214.428 553.168C215.024 552.571 215.496 551.864 215.819 551.085C216.141 550.306 216.307 549.471 216.306 548.628Z" fill="#485E88"/>
<path d="M238.489 548.628C238.489 547.359 238.112 546.119 237.406 545.064C236.701 544.009 235.699 543.186 234.526 542.701C233.353 542.216 232.063 542.089 230.818 542.337C229.573 542.585 228.43 543.196 227.533 544.094C226.636 544.991 226.025 546.135 225.777 547.38C225.53 548.625 225.657 549.915 226.143 551.087C226.629 552.26 227.451 553.262 228.507 553.967C229.562 554.672 230.803 555.048 232.072 555.048C232.915 555.048 233.749 554.882 234.528 554.559C235.307 554.237 236.015 553.764 236.611 553.168C237.206 552.571 237.679 551.864 238.001 551.085C238.324 550.306 238.49 549.471 238.489 548.628Z" fill="#485E88"/>
<path d="M260.673 548.628C260.672 547.359 260.295 546.118 259.59 545.063C258.884 544.008 257.882 543.186 256.709 542.701C255.536 542.216 254.246 542.089 253.001 542.337C251.756 542.585 250.613 543.197 249.716 544.095C248.819 544.993 248.208 546.136 247.961 547.381C247.714 548.626 247.841 549.917 248.327 551.089C248.814 552.261 249.637 553.263 250.692 553.968C251.748 554.673 252.989 555.049 254.258 555.048C255.101 555.048 255.935 554.881 256.714 554.559C257.492 554.236 258.199 553.763 258.795 553.167C259.391 552.571 259.863 551.863 260.185 551.084C260.507 550.305 260.673 549.471 260.673 548.628Z" fill="#485E88"/>
<path d="M199.909 479.042H264.235C269.695 479.042 274.123 475.461 274.123 471.044C274.123 466.627 269.69 463.046 264.235 463.046H199.909C194.449 463.046 190.021 466.627 190.021 471.044C190.021 475.461 194.449 479.042 199.909 479.042Z" fill="#0083C7"/>
<path d="M257.966 479.041C257.966 479.041 233.767 500.637 206.178 479.041H257.966Z" fill="white"/>
<path d="M199.912 438.535H251.395C256.519 438.535 260.673 434.381 260.673 429.257V389.136C260.673 384.012 256.519 379.858 251.395 379.858H199.912C194.788 379.858 190.634 384.012 190.634 389.136V429.257C190.634 434.381 194.788 438.535 199.912 438.535Z" fill="#0083C7"/>
<path d="M224.116 485.159H227.188V416.122H224.116V485.159Z" fill="white"/>
<path d="M330.047 309.163H312.518V322.697H330.047V309.163Z" fill="#D6EBF6"/>
<path d="M330.047 326.062H312.518V332.829H330.047V326.062Z" fill="#D6EBF6"/>
<path d="M330.047 336.196H312.518V347.38H330.047V336.196Z" fill="#D6EBF6"/>
<path d="M330.047 349.712H312.518V363.245H330.047V349.712Z" fill="#D6EBF6"/>
<path d="M147.197 239.634H0V337.889H147.197V239.634Z" fill="#F7FCFD"/>
<path d="M60.2733 252.513H20.2119V253.491H60.2733V252.513Z" fill="#58595B"/>
<path d="M43.9598 255.399H20.989V256.377H43.9598V255.399Z" fill="#0083C7"/>
<path d="M26.3139 261.89H20.6553V262.868H26.3139V261.89Z" fill="#F2706D"/>
<path d="M43.3524 261.89H28.481V262.868H43.3524V261.89Z" fill="#0083C7"/>
<path d="M32.4759 264.969H26.593V265.947H32.4759V264.969Z" fill="#58595B"/>
<path d="M39.4124 264.969H33.6963V265.947H39.4124V264.969Z" fill="#58595B"/>
<path d="M52.6719 264.969H42.4629V265.947H52.6719V264.969Z" fill="#38B9C6"/>
<path d="M36.9688 268.049H31.9751V269.027H36.9688V268.049Z" fill="#F2706D"/>
<path d="M42.8517 268.049H38.1919V269.027H42.8517V268.049Z" fill="#58595B"/>
<path d="M59.3865 268.049H44.6819V269.027H59.3865V268.049Z" fill="#58595B"/>
<path d="M94.4542 268.049H71.9814V269.027H94.4542V268.049Z" fill="#58595B"/>
<path d="M107.104 268.049H97.2837V269.027H107.104V268.049Z" fill="#38B9C6"/>
<path d="M35.777 271.128H31.9751V272.106H35.777V271.128Z" fill="#F2706D"/>
<path d="M43.8502 271.128H38.1343V272.106H43.8502V271.128Z" fill="#58595B"/>
<path d="M65.7126 271.128H44.9036V272.106H65.7126V271.128Z" fill="#38B9C6"/>
<path d="M67.8223 274.208H40.2437V275.186H67.8223V274.208Z" fill="#0083C7"/>
<path d="M40.244 277.287H31.9751V278.265H40.244V277.287Z" fill="#58595B"/>
<path d="M35.4146 280.367H31.9751V281.345H35.4146V280.367Z" fill="#F2706D"/>
<path d="M43.7958 280.367H38.4136V281.345H43.7958V280.367Z" fill="#38B9C6"/>
<path d="M71.4835 280.367H47.4019V281.345H71.4835V280.367Z" fill="#58595B"/>
<path d="M69.5958 283.447H38.6899V284.425H69.5958V283.447Z" fill="#58595B"/>
<path d="M39.3 286.526H31.9751V287.504H39.3V286.526Z" fill="#58595B"/>
<path d="M37.6911 289.605H31.9751V290.583H37.6911V289.605Z" fill="#F2706D"/>
<path d="M42.4916 289.605H39.2998V290.583H42.4916V289.605Z" fill="#0083C7"/>
<path d="M60.6073 289.605H45.6812V290.583H60.6073V289.605Z" fill="#58595B"/>
<path d="M48.3458 292.686H39.8005V293.663H48.3458V292.686Z" fill="#38B9C6"/>
<path d="M85.964 292.686H51.8403V293.663H85.964V292.686Z" fill="#58595B"/>
<path d="M100.504 292.686H89.1841V293.663H100.504V292.686Z" fill="#38B9C6"/>
<path d="M129.3 292.686H104.053V293.663H129.3V292.686Z" fill="#58595B"/>
<path d="M34.2491 295.765H21.2656V296.743H34.2491V295.765Z" fill="#58595B"/>
<path d="M51.5089 295.765H39.8005V296.743H51.5089V295.765Z" fill="#58595B"/>
<path d="M40.8959 298.845H31.9751V299.823H40.8959V298.845Z" fill="#58595B"/>
<path d="M35.0832 301.924H27.4819V302.902H35.0832V301.924Z" fill="#0083C7"/>
<path d="M29.3676 305.004H21.2656V305.982H29.3676V305.004Z" fill="#58595B"/>
<path d="M25.7612 310.699H21.2656V311.677H25.7612V310.699Z" fill="#F2706D"/>
<path d="M34.2516 310.699H28.0376V311.677H34.2516V310.699Z" fill="#58595B"/>
<path d="M52.8934 310.699H35.9697V311.677H52.8934V310.699Z" fill="#58595B"/>
<path d="M39.4667 313.7H26.7048V314.678H39.4667V313.7Z" fill="#58595B"/>
<path d="M52.3409 313.7H43.2402V314.678H52.3409V313.7Z" fill="#0083C7"/>
<path d="M57.7775 316.699H32.8066V317.677H57.7775V316.699Z" fill="#58595B"/>
<path d="M37.8577 319.701H32.8066V320.679H37.8577V319.701Z" fill="#F2706D"/>
<path d="M43.7383 319.701H40.1318V320.679H43.7383V319.701Z" fill="#38B9C6"/>
<path d="M79.6949 319.701H46.0693V320.679H79.6949V319.701Z" fill="#58595B"/>
<path d="M89.8494 319.701H83.1348V320.679H89.8494V319.701Z" fill="#58595B"/>
<path d="M34.2513 322.698H26.7048V323.676H34.2513V322.698Z" fill="#58595B"/>
<path d="M31.6415 325.701H21.2656V326.679H31.6415V325.701Z" fill="#58595B"/>
<path d="M1.49418 237.271H145.697C146.093 237.271 146.474 237.429 146.754 237.709C147.034 237.989 147.191 238.369 147.191 238.766V241.999H0V238.766C0 238.369 0.157422 237.989 0.437636 237.709C0.71785 237.429 1.0979 237.271 1.49418 237.271Z" fill="#485E88"/>
<path d="M485.859 165.408H449.988V166.798H485.859V165.408Z" fill="#58595B"/>
<path d="M511.286 90.0298H302.145V229.634H511.286V90.0298Z" fill="#F7FCFD"/>
<path d="M387.785 108.327H330.863V109.717H387.785V108.327Z" fill="#58595B"/>
<path d="M364.606 112.429H331.966V113.819H364.606V112.429Z" fill="#0083C7"/>
<path d="M339.536 121.652H331.494V123.042H339.536V121.652Z" fill="#F2706D"/>
<path d="M363.74 121.652H342.61V123.042H363.74V121.652Z" fill="#0083C7"/>
<path d="M348.287 126.028H339.929V127.418H348.287V126.028Z" fill="#58595B"/>
<path d="M358.141 126.028H350.021V127.418H358.141V126.028Z" fill="#58595B"/>
<path d="M376.985 126.028H362.478V127.418H376.985V126.028Z" fill="#38B9C6"/>
<path d="M354.671 130.403H347.575V131.793H354.671V130.403Z" fill="#F2706D"/>
<path d="M363.028 130.403H356.407V131.793H363.028V130.403Z" fill="#58595B"/>
<path d="M386.523 130.403H365.63V131.793H386.523V130.403Z" fill="#58595B"/>
<path d="M436.35 130.403H404.419V131.793H436.35V130.403Z" fill="#58595B"/>
<path d="M454.325 130.403H440.371V131.793H454.325V130.403Z" fill="#38B9C6"/>
<path d="M352.976 134.779H347.575V136.169H352.976V134.779Z" fill="#F2706D"/>
<path d="M364.447 134.779H356.327V136.169H364.447V134.779Z" fill="#58595B"/>
<path d="M395.512 134.779H365.946V136.169H395.512V134.779Z" fill="#38B9C6"/>
<path d="M398.505 139.155H359.323V140.545H398.505V139.155Z" fill="#0083C7"/>
<path d="M359.323 143.531H347.575V144.921H359.323V143.531Z" fill="#58595B"/>
<path d="M352.465 147.906H347.575V149.296H352.465V147.906Z" fill="#F2706D"/>
<path d="M364.371 147.906H356.723V149.296H364.371V147.906Z" fill="#38B9C6"/>
<path d="M403.71 147.906H369.492V149.296H403.71V147.906Z" fill="#58595B"/>
<path d="M401.032 152.281H357.117V153.671H401.032V152.281Z" fill="#58595B"/>
<path d="M357.982 156.657H347.575V158.047H357.982V156.657Z" fill="#58595B"/>
<path d="M355.695 161.033H347.575V162.423H355.695V161.033Z" fill="#F2706D"/>
<path d="M362.515 161.033H357.982V162.423H362.515V161.033Z" fill="#0083C7"/>
<path d="M388.257 161.033H367.049V162.423H388.257V161.033Z" fill="#58595B"/>
<path d="M370.833 165.408H358.692V166.798H370.833V165.408Z" fill="#38B9C6"/>
<path d="M424.287 165.408H375.8V166.798H424.287V165.408Z" fill="#58595B"/>
<path d="M444.942 165.408H428.858V166.798H444.942V165.408Z" fill="#38B9C6"/>
<path d="M350.809 169.784H332.36V171.174H350.809V169.784Z" fill="#58595B"/>
<path d="M375.326 169.784H358.692V171.174H375.326V169.784Z" fill="#58595B"/>
<path d="M360.248 174.16H347.575V175.55H360.248V174.16Z" fill="#58595B"/>
<path d="M351.993 178.535H341.192V179.925H351.993V178.535Z" fill="#0083C7"/>
<path d="M343.87 182.911H332.36V184.301H343.87V182.911Z" fill="#58595B"/>
<path d="M338.746 191.004H332.36V192.394H338.746V191.004Z" fill="#F2706D"/>
<path d="M350.809 191.004H341.979V192.394H350.809V191.004Z" fill="#58595B"/>
<path d="M377.297 191.004H353.252V192.394H377.297V191.004Z" fill="#58595B"/>
<path d="M358.22 195.265H340.086V196.655H358.22V195.265Z" fill="#58595B"/>
<path d="M376.51 195.265H363.581V196.655H376.51V195.265Z" fill="#0083C7"/>
<path d="M384.236 199.529H348.759V200.919H384.236V199.529Z" fill="#58595B"/>
<path d="M355.932 203.79H348.759V205.179H355.932V203.79Z" fill="#F2706D"/>
<path d="M364.29 203.79H359.167V205.179H364.29V203.79Z" fill="#38B9C6"/>
<path d="M415.379 203.79H367.602V205.179H415.379V203.79Z" fill="#58595B"/>
<path d="M429.805 203.79H420.266V205.179H429.805V203.79Z" fill="#58595B"/>
<path d="M350.809 208.053H340.086V209.443H350.809V208.053Z" fill="#58595B"/>
<path d="M347.103 212.316H332.36V213.706H347.103V212.316Z" fill="#58595B"/>
<path d="M304.267 86.6709H509.161C509.725 86.6709 510.265 86.8948 510.664 87.2934C511.062 87.6919 511.286 88.2325 511.286 88.7961V93.3881H302.153V88.7831C302.156 88.2235 302.38 87.6878 302.776 87.2924C303.172 86.897 303.708 86.6736 304.267 86.6709Z" fill="#485E88"/>
<path d="M515.344 266.469C519.033 262.782 521.607 258.128 522.767 253.043C523.928 247.958 523.629 242.648 521.905 237.726C520.18 232.803 517.101 228.467 513.021 225.218C508.94 221.968 504.026 219.937 498.842 219.359C493.658 218.78 488.416 219.677 483.72 221.946C479.023 224.215 475.063 227.765 472.296 232.186C469.528 236.607 468.065 241.72 468.075 246.935C468.086 252.151 469.569 257.258 472.354 261.668L471.277 271.382L480.991 270.302C486.303 273.654 492.596 275.1 498.839 274.404C505.081 273.707 510.901 270.909 515.344 266.469Z" fill="#F2706D"/>
<path d="M485.108 246.92C486.672 246.92 486.894 246.056 486.894 245.285C486.879 244.663 486.82 244.044 486.719 243.431C486.617 242.827 486.558 242.217 486.542 241.605C486.542 239.574 487.867 238.713 489.744 238.713H490.208V239.926H489.809C488.506 239.926 488.065 240.633 488.065 241.827C488.075 242.352 488.126 242.875 488.219 243.391C488.317 243.945 488.369 244.506 488.375 245.068C488.396 246.481 487.778 247.188 486.785 247.454V247.498C487.778 247.741 488.396 248.492 488.375 249.905C488.37 250.468 488.318 251.03 488.219 251.585C488.126 252.109 488.075 252.64 488.065 253.173C488.065 254.409 488.586 255.094 489.809 255.094H490.208V256.31H489.744C487.919 256.31 486.542 255.527 486.542 253.282C486.557 252.675 486.617 252.071 486.719 251.472C486.82 250.881 486.879 250.283 486.894 249.684C486.894 249 486.675 248.051 485.108 248.051V246.92Z" fill="white"/>
<path d="M505.784 248.046C504.219 248.046 503.992 248.996 503.992 249.679C504.009 250.278 504.068 250.876 504.17 251.468C504.273 252.066 504.332 252.671 504.347 253.277C504.347 255.509 502.957 256.305 501.145 256.305H500.681V255.09H501.056C502.295 255.069 502.824 254.404 502.824 253.168C502.804 252.636 502.753 252.106 502.67 251.58C502.564 251.026 502.505 250.464 502.493 249.9C502.493 248.487 503.111 247.736 504.084 247.494V247.449C503.111 247.188 502.493 246.477 502.493 245.063C502.506 244.5 502.565 243.94 502.67 243.387C502.752 242.869 502.804 242.346 502.824 241.822C502.824 240.628 502.36 239.944 501.08 239.921H500.681V238.708H501.124C503.001 238.708 504.347 239.569 504.347 241.6C504.331 242.212 504.272 242.822 504.17 243.426C504.068 244.039 504.009 244.658 503.992 245.28C503.992 246.062 504.214 246.915 505.784 246.915V248.046Z" fill="white"/>
<path d="M566.962 415.363C566.962 415.363 608.835 445.961 587.333 508.684L593.187 509.039C593.187 509.039 610.716 446.263 566.962 415.363Z" fill="#0083C7"/>
<path d="M644.355 420.598C644.355 420.598 601.245 441.72 610.69 502.347L605.3 501.721C605.3 501.721 599.503 441.683 644.355 420.598Z" fill="#0083C7"/>
<path d="M569.698 426.11C573.922 418.908 576.298 409.387 577.26 404.868C575.859 403.549 575.434 401.562 575.088 399.512C574.704 397.238 572.48 391.721 572.48 391.721C571.75 387.413 567.043 385.921 563.812 388.978L553.783 398.464C546.166 405.664 543.162 417.009 546.33 426.595L554.086 444.452C554.576 445.933 555.489 450.736 556.805 453.516C557.087 452.512 557.356 450.387 557.588 449.419C560.777 436.405 563.961 435.886 569.698 426.11Z" fill="#85D2DA"/>
<path d="M560.081 451.925L579.409 440.991C589.367 435.358 596.223 424.432 597.255 412.55L598.001 403.944C598.408 399.251 595.237 397.389 590.246 398.304C588.322 398.656 586.371 399.449 582.707 401.201C581.09 401.983 578.937 404.492 577.257 404.852C576.298 409.371 573.922 418.891 569.695 426.094C563.958 435.869 560.774 436.388 557.588 449.403C557.353 450.36 557.084 452.496 556.805 453.5C557.979 452.522 558.991 452.54 560.081 451.925Z" fill="#38B9C6"/>
<path d="M634.206 411.093C632.957 411.594 631.455 411.354 630.164 410.16L623.939 404.423C621.105 401.815 618.372 402.947 618.761 407.015C618.901 408.488 618.549 413.599 618.549 413.599C618.476 423.954 622.088 430.609 628.886 437.456C632.015 440.606 637.168 447.647 640.78 450.625C641.635 451.331 645.549 454.925 646.417 454.779C644.944 446.638 642.558 437.253 639.575 430.095C637.071 423.985 635.269 417.61 634.206 411.093Z" fill="#38B9C6"/>
<path d="M648.895 448.045C651.046 444.452 654.345 436.05 654.869 431.002C655.482 425.072 654.042 416.522 648.569 409.335C646.764 406.97 646.53 401.734 645.492 399.33C643.972 395.815 639.153 397.465 638.302 401.583C637.906 403.507 636.548 408.193 636.548 408.193C636.18 409.679 635.285 410.66 634.201 411.093C635.265 417.605 637.066 423.976 639.57 430.081C642.553 437.239 644.939 446.624 646.412 454.765C647.408 451.975 645.828 453.172 648.895 448.045Z" fill="#85D2DA"/>
<path d="M611.237 413.231C611.237 413.231 607.892 427.226 604.718 453.516C603.318 465.068 603.691 477.895 603.154 490.328H605.068C605.068 490.328 603.709 472.025 605.647 453.691C607.889 432.447 611.277 416.77 611.879 412.801C613.063 404.879 611.237 413.231 611.237 413.231Z" fill="#0083C7"/>
<path d="M609.198 425.768C607.357 425.39 607.193 422.436 607.806 420C609.316 414.003 611.53 403.77 613.355 398.547C614.168 396.224 614.573 394.292 615.264 394.326L615.644 394.362C616.387 394.751 616.625 396.477 616.445 397.997C615.738 403.961 613.916 415.729 612.633 421.823C612.114 424.285 611.042 426.149 609.198 425.768Z" fill="#FBB157"/>
<path d="M577.208 448.835C577.208 448.835 584.535 453.208 589.902 471.261C595.268 489.313 598.846 491.261 598.846 491.261L597.198 491.916C593.192 484.461 589.114 475.843 587.484 469.042C583.823 453.826 577.208 448.835 577.208 448.835Z" fill="#38B9C6"/>
<path d="M592.546 485.008C592.546 485.008 586.611 475.579 584.806 465.519C583.002 455.459 579.239 450.89 577.208 448.83C577.208 448.83 583.823 453.818 587.484 469.037C589.119 475.837 593.192 484.455 597.198 491.911L596.228 492.296L592.546 485.008Z" fill="#85D2DA"/>
<path d="M629.163 442.903C629.163 442.903 621.139 447.813 615.444 467.779C609.749 487.746 605.827 489.944 605.827 489.944L607.652 490.646C611.976 482.377 616.359 472.828 618.083 465.313C621.929 448.483 629.163 442.903 629.163 442.903Z" fill="#38B9C6"/>
<path d="M612.695 482.964C612.695 482.964 619.123 472.497 620.99 461.386C622.857 450.275 626.946 445.192 629.163 442.903C629.163 442.903 621.929 448.483 618.08 465.302C616.359 472.817 611.976 482.366 607.649 490.635L608.724 491.05L612.695 482.964Z" fill="#85D2DA"/>
<path d="M617.496 428.887C617.496 428.887 609.96 435.708 607.913 458.055C605.866 480.403 602.142 483.511 602.142 483.511L604.228 483.892C607.162 474.244 609.905 463.221 610.226 454.895C610.93 436.261 617.496 428.887 617.496 428.887Z" fill="#38B9C6"/>
<path d="M608.038 474.731C608.038 474.731 612.763 462.327 612.52 450.154C612.278 437.982 615.6 431.763 617.493 428.887C617.493 428.887 610.93 436.261 610.215 454.895C609.895 463.221 607.151 474.244 604.218 483.892L605.441 484.113L608.038 474.731Z" fill="#85D2DA"/>
<path d="M599.521 413.445C599.521 413.445 607.407 424.321 603.954 453.772C600.502 483.222 604.476 488.257 604.476 488.257L601.686 488.182C600.523 474.906 599.983 459.912 601.839 449.067C605.999 424.77 599.521 413.445 599.521 413.445Z" fill="#38B9C6"/>
<path d="M599.242 475.297C599.242 475.297 596.515 457.972 600.147 442.298C603.78 426.624 601.19 417.682 599.513 413.445C599.513 413.445 605.991 424.77 601.837 449.057C599.98 459.913 600.533 474.906 601.683 488.171L600.04 488.127L599.242 475.297Z" fill="#85D2DA"/>
<path d="M620.106 522.526H581.521L580.686 513.186L577.982 511.817L575.523 484.257L573.453 483.908L572.673 478.776H628.922L628.143 483.892L626.036 484.361L623.345 511.593L621.027 513.204L620.106 522.526Z" fill="#485E88"/>
</svg>
